<svg width="24" height="24" viewBox="0 0 24 24" fill="none" xmlns="http://www.w3.org/2000/svg">
<path d="M12 23.9999C17.514 23.9999 22 19.7399 22 14.5035C21.9774 12.165 21.2832 9.88228 20 7.92714C19.9204 7.80647 19.8081 7.71099 19.6762 7.65192C19.5442 7.59284 19.3982 7.57261 19.2552 7.59361C19.1121 7.6146 18.9781 7.67595 18.8687 7.77045C18.7593 7.86495 18.6792 7.98869 18.6376 8.12714C18.5049 8.6257 18.293 9.09972 18.01 9.53114C17.1209 5.63252 14.7225 2.24537 11.3404 0.111943C11.2232 0.0418519 11.0899 0.00338922 10.9534 0.000321191C10.8169 -0.00274684 10.6819 0.0296849 10.5617 0.0944409C10.4415 0.159197 10.3402 0.254058 10.2677 0.369735C10.1952 0.485412 10.1539 0.61794 10.148 0.754343C10.0376 3.46354 9.20561 4.75634 6.91761 7.03874C5.62248 8.31087 4.87772 10.0401 4.84321 11.8551C4.50231 11.5008 4.23707 11.0808 4.06361 10.6207C4.00154 10.4689 3.89412 10.34 3.75602 10.2515C3.61792 10.1631 3.45587 10.1194 3.29202 10.1265C3.12817 10.1336 2.97051 10.1911 2.84056 10.2911C2.71062 10.3912 2.61474 10.5289 2.56601 10.6855C2.18917 11.9231 1.99842 13.2099 2.00001 14.5035C2.00001 19.7399 6.48601 23.9999 12 23.9999ZM12 23.1951C10.7348 23.1947 9.49811 22.8191 8.44635 22.1158C7.39458 21.4125 6.57496 20.4132 6.09111 19.2441C5.60726 18.0751 5.48091 16.7888 5.72803 15.548C5.97515 14.3071 6.58466 13.1674 7.47947 12.2729C8.37429 11.3784 9.51424 10.7694 10.7552 10.5227C11.9961 10.276 13.2824 10.4029 14.4512 10.8872C15.6201 11.3715 16.6191 12.1914 17.322 13.2435C18.0249 14.2955 18.4 15.5323 18.4 16.7975C18.3978 18.494 17.7227 20.1204 16.5229 21.3197C15.3231 22.5191 13.6965 23.1936 12 23.1951ZM10.9292 0.799943C12.5245 1.80674 13.9042 3.11989 14.9886 4.66343C16.073 6.20696 16.8406 7.95022 17.2468 9.79234C17.2782 9.93406 17.3496 10.0638 17.4524 10.1663C17.5552 10.2687 17.6853 10.3396 17.8271 10.3704C17.9689 10.4013 18.1166 10.3909 18.2528 10.3405C18.3889 10.2901 18.5077 10.2018 18.5952 10.0859C18.9481 9.58596 19.2127 9.02925 19.3776 8.43994C20.5465 10.248 21.1784 12.3506 21.2 14.5035C21.1878 15.8949 20.8363 17.2622 20.1759 18.4869C19.5155 19.7115 18.5662 20.7565 17.4104 21.5311C18.3238 20.4909 18.9179 19.2095 19.1216 17.8403C19.3253 16.4711 19.13 15.0721 18.5591 13.8111C17.9882 12.55 17.0658 11.4803 15.9025 10.73C14.7392 9.97966 13.3843 9.58061 12 9.58061C10.6157 9.58061 9.26079 9.97966 8.09748 10.73C6.93418 11.4803 6.01183 12.55 5.4409 13.8111C4.86997 15.0721 4.67468 16.4711 4.87841 17.8403C5.08215 19.2095 5.67627 20.4909 6.58961 21.5311C5.43381 20.7565 4.48451 19.7115 3.82412 18.4869C3.16372 17.2622 2.81218 15.8949 2.80001 14.5035C2.79951 13.2916 2.97604 12.0861 3.32401 10.9251C3.53786 11.4899 3.86729 12.0038 4.29121 12.4339C4.40365 12.54 4.54442 12.6113 4.6965 12.6391C4.84857 12.6668 5.00544 12.65 5.14813 12.5905C5.29081 12.531 5.4132 12.4314 5.5005 12.3038C5.58779 12.1762 5.63625 12.0261 5.64001 11.8715C5.67201 10.2636 6.33251 8.73204 7.48001 7.60514C9.82481 5.26794 10.8248 3.80434 10.9292 0.799943Z" fill="black"/>
<path d="M8.64005 14.8801C8.55518 14.8164 8.4485 14.7891 8.34348 14.8041C8.23846 14.8191 8.1437 14.8752 8.08005 14.9601L7.60005 15.6V15.2C7.60005 15.094 7.55791 14.9922 7.48289 14.9172C7.40788 14.8422 7.30614 14.8 7.20005 14.8C7.09396 14.8 6.99222 14.8422 6.91721 14.9172C6.84219 14.9922 6.80005 15.094 6.80005 15.2V18.4001C6.80005 18.5061 6.84219 18.6079 6.91721 18.6829C6.99222 18.7579 7.09396 18.8001 7.20005 18.8001C7.30614 18.8001 7.40788 18.7579 7.48289 18.6829C7.55791 18.6079 7.60005 18.5061 7.60005 18.4001V18.0001L8.08005 18.64C8.1437 18.7249 8.23846 18.781 8.34348 18.796C8.4485 18.811 8.55518 18.7837 8.64005 18.72C8.72492 18.6564 8.78103 18.5616 8.79603 18.4566C8.81103 18.3516 8.7837 18.2449 8.72005 18.1601L7.70005 16.8001L8.72005 15.44C8.75157 15.398 8.7745 15.3502 8.78753 15.2993C8.80057 15.2484 8.80346 15.1955 8.79603 15.1435C8.7886 15.0915 8.771 15.0415 8.74424 14.9963C8.71748 14.9511 8.68207 14.9116 8.64005 14.8801ZM10.4 15.6C10.5061 15.6 10.6079 15.6422 10.6829 15.7172C10.7579 15.7922 10.8 15.894 10.8 16C10.8 16.1061 10.8422 16.2079 10.9172 16.2829C10.9922 16.3579 11.094 16.4 11.2 16.4C11.3061 16.4 11.4079 16.3579 11.4829 16.2829C11.5579 16.2079 11.6 16.1061 11.6 16C11.6 15.6818 11.4736 15.3766 11.2486 15.1515C11.0235 14.9265 10.7183 14.8 10.4 14.8C10.0818 14.8 9.77656 14.9265 9.55152 15.1515C9.32648 15.3766 9.20005 15.6818 9.20005 16V17.6001C9.20005 17.9183 9.32648 18.2235 9.55152 18.4486C9.77656 18.6736 10.0818 18.8001 10.4 18.8001C10.7183 18.8001 11.0235 18.6736 11.2486 18.4486C11.4736 18.2235 11.6 17.9183 11.6 17.6001C11.6 17.494 11.5579 17.3922 11.4829 17.3172C11.4079 17.2422 11.3061 17.2001 11.2 17.2001C11.094 17.2001 10.9922 17.2422 10.9172 17.3172C10.8422 17.3922 10.8 17.494 10.8 17.6001C10.8 17.7061 10.7579 17.8079 10.6829 17.8829C10.6079 17.9579 10.5061 18.0001 10.4 18.0001C10.294 18.0001 10.1922 17.9579 10.1172 17.8829C10.0422 17.8079 10 17.7061 10 17.6001V16C10 15.894 10.0422 15.7922 10.1172 15.7172C10.1922 15.6422 10.294 15.6 10.4 15.6ZM13.6 14.8C13.2818 14.8 12.9766 14.9265 12.7515 15.1515C12.5265 15.3766 12.4 15.6818 12.4 16V18.4001C12.4 18.5061 12.4422 18.6079 12.5172 18.6829C12.5922 18.7579 12.694 18.8001 12.8 18.8001C12.9061 18.8001 13.0079 18.7579 13.0829 18.6829C13.1579 18.6079 13.2 18.5061 13.2 18.4001V17.6001H14V18.4001C14 18.5061 14.0422 18.6079 14.1172 18.6829C14.1922 18.7579 14.294 18.8001 14.4 18.8001C14.5061 18.8001 14.6079 18.7579 14.6829 18.6829C14.7579 18.6079 14.8 18.5061 14.8 18.4001V16C14.8 15.6818 14.6736 15.3766 14.4486 15.1515C14.2235 14.9265 13.9183 14.8 13.6 14.8ZM14 16.8001H13.2V16C13.2 15.894 13.2422 15.7922 13.3172 15.7172C13.3922 15.6422 13.494 15.6 13.6 15.6C13.7061 15.6 13.8079 15.6422 13.8829 15.7172C13.9579 15.7922 14 15.894 14 16V16.8001ZM17.2 18.0001H16.4V15.2C16.4 15.094 16.3579 14.9922 16.2829 14.9172C16.2079 14.8422 16.1061 14.8 16 14.8C15.894 14.8 15.7922 14.8422 15.7172 14.9172C15.6422 14.9922 15.6 15.094 15.6 15.2V18.4001C15.6 18.5061 15.6422 18.6079 15.7172 18.6829C15.7922 18.7579 15.894 18.8001 16 18.8001H17.2C17.3061 18.8001 17.4079 18.7579 17.4829 18.6829C17.5579 18.6079 17.6 18.5061 17.6 18.4001C17.6 18.294 17.5579 18.1922 17.4829 18.1172C17.4079 18.0422 17.3061 18.0001 17.2 18.0001Z" fill="black"/>
</svg>
