<svg width="24" height="24" viewBox="0 0 24 24" fill="none" xmlns="http://www.w3.org/2000/svg">
<path d="M21.75 12.0037V12C21.75 11.9868 21.7481 11.9756 21.7462 11.9625C21.7443 11.9512 21.7443 11.94 21.7425 11.9287V11.9268C21.7425 11.925 21.7425 11.925 21.7425 11.9231C20.4337 5.21808 15.375 2.76183 15.1612 2.66058C15.0375 2.60245 14.8912 2.61558 14.7806 2.6962L13.0706 3.93745C12.9225 4.04433 12.8737 4.24308 12.9543 4.4062C13.0012 4.49995 13.0312 4.60308 13.0481 4.71745C13.0912 5.0137 13.0162 5.30995 12.8362 5.54995C12.6562 5.79183 12.3937 5.94745 12.0956 5.99058C11.7562 6.03933 11.4168 5.93245 11.1656 5.69808C11.0343 5.57433 10.8337 5.56308 10.6893 5.66808L2.40371 11.6962C2.39621 11.7018 2.39058 11.7075 2.38496 11.7131C2.37371 11.7225 2.36433 11.73 2.35496 11.7412C2.34558 11.7506 2.33996 11.76 2.33246 11.7693C2.32496 11.7787 2.31746 11.7881 2.30996 11.7975C2.30246 11.8087 2.29871 11.8181 2.29308 11.8293C2.28746 11.8406 2.28183 11.85 2.27808 11.8612C2.27433 11.8725 2.27058 11.8837 2.26683 11.8968C2.26308 11.9081 2.25933 11.9193 2.25746 11.9306C2.25558 11.9437 2.25371 11.9587 2.25371 11.9718C2.25371 11.9812 2.25183 11.9887 2.25183 11.9962V14.9962C2.25183 15.2025 2.42058 15.3712 2.62683 15.3712C3.24746 15.3712 3.75183 15.8756 3.75183 16.4962C3.75183 17.1168 3.24746 17.6212 2.62683 17.6212C2.42058 17.6212 2.25183 17.79 2.25183 17.9962V20.9962C2.25183 21.2025 2.42058 21.3712 2.62683 21.3712H8.25183C8.35871 21.3712 8.46183 21.3243 8.53308 21.2456C8.60433 21.1668 8.63808 21.0581 8.62496 20.9512C8.61933 20.9043 8.61746 20.8575 8.61746 20.8087C8.61746 20.085 9.20621 19.4962 9.92996 19.4962C10.6537 19.4962 11.2425 20.085 11.2425 20.8087C11.2425 20.8575 11.2387 20.9043 11.2331 20.9512C11.22 21.0581 11.2537 21.165 11.325 21.2456C11.3962 21.3262 11.4975 21.3712 11.6062 21.3712H21.375C21.5812 21.3712 21.75 21.2025 21.75 20.9962V12.0037ZM10.9031 6.44433C11.2837 6.69745 11.7431 6.80245 12.2043 6.73495C12.7012 6.6637 13.14 6.40308 13.44 5.99995C13.74 5.5987 13.8637 5.10558 13.7925 4.61433C13.7812 4.5337 13.7662 4.45495 13.7437 4.37808L15.0318 3.44245C15.9281 3.94308 19.7025 6.33558 20.9118 11.6268H13.5712C13.1737 10.9368 12.435 10.5018 11.625 10.5018C10.815 10.5018 10.0762 10.9368 9.67871 11.6268H3.77808L10.9031 6.44433ZM10.2506 12.15C10.4906 11.6025 11.0287 11.25 11.625 11.25C12.2212 11.25 12.7593 11.6025 12.9993 12.1518C13.0818 12.3393 13.125 12.5418 13.125 12.75C13.125 13.5768 12.4518 14.25 11.625 14.25C10.7981 14.25 10.125 13.5768 10.125 12.75C10.125 12.54 10.1662 12.3393 10.2506 12.15ZM21 20.625H11.9812C11.8856 19.575 11.0006 18.75 9.92621 18.75C8.85183 18.75 7.96683 19.575 7.87121 20.625H2.99996V18.3375C3.85496 18.1631 4.49996 17.4056 4.49996 16.5C4.49996 15.5943 3.85496 14.8368 2.99996 14.6625V12.375H9.40683C9.40121 12.4068 9.39933 12.4368 9.39558 12.4687C9.39371 12.4912 9.38996 12.5137 9.38621 12.5362C9.37871 12.6075 9.37496 12.6787 9.37496 12.75C9.37496 13.9912 10.3837 15 11.625 15C12.8662 15 13.875 13.9912 13.875 12.75C13.875 12.6787 13.8712 12.6075 13.8637 12.5362C13.8618 12.5137 13.8581 12.4912 13.8543 12.4687C13.8506 12.4368 13.8487 12.4068 13.8431 12.375H21V20.625ZM17.0625 18.75C17.9925 18.75 18.75 17.9925 18.75 17.0625C18.75 16.1325 17.9925 15.375 17.0625 15.375C16.1325 15.375 15.375 16.1325 15.375 17.0625C15.375 17.9925 16.1325 18.75 17.0625 18.75ZM17.0625 16.125C17.58 16.125 18 16.545 18 17.0625C18 17.58 17.58 18 17.0625 18C16.545 18 16.125 17.58 16.125 17.0625C16.125 16.545 16.545 16.125 17.0625 16.125ZM7.31246 15.75C7.00308 15.75 6.74996 16.0031 6.74996 16.3125C6.74996 16.6218 7.00308 16.875 7.31246 16.875C7.62183 16.875 7.87496 16.6218 7.87496 16.3125C7.87496 16.0031 7.62183 15.75 7.31246 15.75ZM15.375 8.24995C15.375 7.83558 15.7106 7.49995 16.125 7.49995C16.5393 7.49995 16.875 7.83558 16.875 8.24995C16.875 8.66433 16.5393 8.99995 16.125 8.99995C15.7106 8.99995 15.375 8.66433 15.375 8.24995Z" fill="black"/>
</svg>
