<svg width="24" height="24" viewBox="0 0 24 24" fill="none" xmlns="http://www.w3.org/2000/svg">
<path fill-rule="evenodd" clip-rule="evenodd" d="M10.7544 4.6347C13.774 2.93157 17.6226 2.42352 20.0178 2.50902C20.2869 2.51863 20.5 2.73951 20.5 3.00871C20.5 9.61616 18.3335 13.4171 15.6011 15.3487C13.0094 17.181 9.97927 17.2744 8.05174 16.5611C7.21598 17.1166 6.46136 17.9484 5.84311 18.8061C5.17756 19.7293 4.69548 20.6468 4.45954 21.197C4.35072 21.4508 4.05676 21.5684 3.80297 21.4595C3.54917 21.3507 3.43165 21.0568 3.54047 20.803C3.80454 20.1871 4.32245 19.2055 5.03191 18.2213C5.73838 17.2413 6.66043 16.2228 7.74285 15.5736C7.88048 15.4911 8.04937 15.4796 8.19689 15.5428C9.78904 16.2248 12.605 16.2423 15.0239 14.5322C17.3545 12.8845 19.3917 9.57262 19.4958 3.49995C17.2136 3.4999 13.8662 4.02766 11.2456 5.50571C9.84566 6.29531 8.67865 7.34137 7.97506 8.69728C7.38977 9.82522 7.10845 11.1994 7.31205 12.8771C8.31923 11.7843 9.64815 10.5993 11.0055 9.54327C12.7042 8.22159 14.4984 7.06211 15.8143 6.53574C16.0707 6.43318 16.3617 6.55789 16.4642 6.81428C16.5668 7.07067 16.4421 7.36166 16.1857 7.46422C15.0016 7.93785 13.2958 9.02836 11.6195 10.3326C9.94789 11.6332 8.35648 13.1066 7.39065 14.3155C7.2705 14.4659 7.07468 14.5339 6.88716 14.4905C6.69963 14.447 6.5537 14.2998 6.51192 14.1119C5.98982 11.7636 6.26617 9.81942 7.08745 8.2367C7.90469 6.66175 9.23768 5.49013 10.7544 4.6347Z" fill="black"/>
</svg>
