<svg width="24" height="24" viewBox="0 0 24 24" fill="none" xmlns="http://www.w3.org/2000/svg">
<g clip-path="url(#clip0_9_8)">
<path d="M23.1 15.7103L23.0415 15.4448C22.5559 13.1509 21.7585 10.9343 20.6715 8.85678C19.6071 6.8284 18.2752 4.95213 16.7115 3.27828C15.1579 2.06597 13.4272 1.09969 11.58 0.413281L11.4135 0.351031C10.3395 -0.0502193 9.68847 -0.293969 8.60772 0.674281C8.03097 1.18953 6.20772 3.02103 6.91722 4.98828C7.24797 5.90403 8.36472 7.08828 9.40872 6.93828C9.64105 6.89995 9.85972 6.80288 10.044 6.65628C10.1826 6.53915 10.3543 6.46811 10.5352 6.45303C10.7116 6.44158 10.8883 6.46713 11.0542 6.52803C11.3253 6.61499 11.608 6.66026 11.8927 6.66228C12.118 6.66636 12.3416 6.62398 12.5497 6.53778C12.6295 6.49936 12.7179 6.4823 12.8062 6.48828C13.2224 6.5505 13.5978 6.77279 13.8525 7.10778C14.0068 7.32533 14.1119 7.57388 14.1605 7.83615C14.2091 8.09843 14.1999 8.36814 14.1337 8.62653C14.1259 8.65717 14.1219 8.68866 14.1217 8.72028V12.75C13.2942 12.4689 12.4063 12.4157 11.5511 12.5961C10.696 12.7765 9.90515 13.1838 9.26172 13.7753C7.91121 13.0393 6.32666 12.8598 4.84572 13.275C4.09852 13.4779 3.40133 13.833 2.79794 14.3182C2.19456 14.8034 1.698 15.408 1.33947 16.0943C0.923658 16.9507 0.727978 17.8974 0.770146 18.8485C0.812313 19.7996 1.091 20.7252 1.58097 21.5415C2.06046 22.3928 2.75983 23.0997 3.60597 23.5883C4.24314 23.8911 4.94501 24.0325 5.64972 24C6.04572 24 6.45147 23.973 6.84972 23.9363C7.24644 23.887 7.63832 23.8044 8.02122 23.6895C8.5477 23.4934 9.1129 23.4238 9.67122 23.4863C10.71 23.7312 11.7876 23.7636 12.8392 23.5815C15.2748 23.0702 17.5807 22.068 19.6162 20.6363C20.7998 19.8641 21.8662 18.9258 22.7827 17.85C23.0145 17.5504 23.1653 17.1963 23.2209 16.8216C23.2764 16.4469 23.2348 16.0642 23.1 15.7103ZM22.1887 17.3933C21.3172 18.4065 20.3058 19.2904 19.185 20.0183C17.2372 21.3896 15.0307 22.3498 12.6997 22.8405C11.752 23.004 10.7811 22.9741 9.84522 22.7528C9.1659 22.6537 8.4726 22.7251 7.82772 22.9605C7.4866 23.0645 7.13738 23.1397 6.78372 23.1855C5.83624 23.3562 4.86013 23.265 3.96072 22.9215C3.23598 22.4996 2.63749 21.8913 2.22747 21.1598C1.80125 20.4524 1.55791 19.6501 1.51941 18.8252C1.48092 18.0003 1.64848 17.1787 2.00697 16.4348C2.31822 15.8405 2.74899 15.317 3.27223 14.8971C3.79547 14.4773 4.39987 14.1701 5.04747 13.995C6.28559 13.6456 7.61021 13.7797 8.75322 14.37C8.58443 14.6001 8.4425 14.8487 8.33022 15.111C8.06692 15.748 7.98063 16.4443 8.08047 17.1263C8.09327 17.2155 8.13776 17.2971 8.20579 17.3562C8.27383 17.4153 8.36086 17.4479 8.45097 17.448C8.46896 17.4491 8.48699 17.4491 8.50497 17.448C8.60331 17.4337 8.69194 17.381 8.75143 17.3014C8.81091 17.2218 8.83637 17.1219 8.82222 17.0235C8.74197 16.4757 8.81089 15.9163 9.02172 15.4043C9.17872 15.0277 9.41038 14.6869 9.70272 14.4023L9.70797 14.3948C10.3127 13.8151 11.0796 13.4333 11.9066 13.3002C12.7336 13.167 13.5816 13.2888 14.3377 13.6493C14.3949 13.6765 14.458 13.6888 14.5211 13.6851C14.5843 13.6813 14.6455 13.6617 14.699 13.6279C14.7526 13.5941 14.7967 13.5474 14.8273 13.492C14.8579 13.4366 14.8739 13.3743 14.874 13.311V8.76378C14.9588 8.40136 14.9647 8.02495 14.8913 7.66004C14.818 7.29513 14.667 6.95026 14.4487 6.64878C14.2578 6.39734 14.0182 6.18703 13.744 6.03045C13.4699 5.87387 13.167 5.77424 12.8535 5.73753C12.6578 5.72367 12.4616 5.75765 12.282 5.83653C12.1617 5.89716 12.0269 5.92312 11.8927 5.91153C11.6783 5.90963 11.4655 5.8742 11.262 5.80653C11.0074 5.71972 10.7384 5.68354 10.47 5.70003C10.1573 5.72576 9.85899 5.84258 9.61197 6.03603C9.52334 6.11227 9.41629 6.16399 9.30147 6.18603C8.71947 6.26103 7.87647 5.43603 7.62147 4.72653C7.18422 3.51528 8.10222 2.12403 9.10647 1.22703C9.85272 0.560281 10.1272 0.664531 11.1502 1.04703L11.3182 1.11003C12.2692 1.46583 13.1895 1.89878 14.07 2.40453C14.8132 2.83131 15.5271 3.30737 16.2067 3.82953C17.706 5.44577 18.9841 7.25379 20.0077 9.20628C21.0628 11.2225 21.8367 13.3738 22.308 15.6L22.3695 15.876C22.5187 16.5375 22.5937 16.8683 22.1887 17.3933ZM16.5142 18.5295C16.4269 18.482 16.3243 18.4711 16.2289 18.4993C16.1336 18.5274 16.0533 18.5922 16.0057 18.6795C15.5605 19.5014 14.8596 20.1559 14.0092 20.544C13.4373 20.7841 12.8214 20.9015 12.2013 20.8886C11.5811 20.8756 10.9706 20.7327 10.4092 20.469C10.3643 20.4425 10.3144 20.4255 10.2626 20.4194C10.2108 20.4132 10.1583 20.4179 10.1084 20.4331C10.0585 20.4484 10.0124 20.4739 9.97292 20.508C9.93346 20.5422 9.90155 20.5841 9.87923 20.6313C9.85692 20.6784 9.84468 20.7297 9.84331 20.7819C9.84194 20.834 9.85146 20.8859 9.87127 20.9341C9.89108 20.9824 9.92074 21.026 9.95836 21.0621C9.99597 21.0983 10.0407 21.1262 10.0897 21.144C10.7961 21.467 11.5631 21.636 12.3397 21.6398C13.0187 21.6416 13.6904 21.4997 14.3107 21.2235C15.3113 20.7677 16.1361 19.9984 16.6605 19.032C16.7064 18.9457 16.7168 18.8449 16.6895 18.7511C16.6622 18.6572 16.5993 18.5777 16.5142 18.5295Z" fill="black"/>
</g>
<defs>
<clipPath id="clip0_9_8">
<rect width="24" height="24" fill="white"/>
</clipPath>
</defs>
</svg>
