<?xml version="1.0" encoding="UTF-8"?>
<svg version="1.1" xmlns="http://www.w3.org/2000/svg" width="512" height="512">
<path d="M0 0 C1.10787872 -0.00067474 2.21575745 -0.00134949 3.35720825 -0.00204468 C41.9303903 0.03516295 81.87775869 3.85634185 118.02734375 18.26953125 C121.13434976 19.394322 121.13434976 19.394322 124.8359375 19.60546875 C129.99853941 20.16164881 134.18789732 22.38233202 138.75 24.75 C139.62849609 25.19996338 140.50699219 25.64992676 141.41210938 26.11352539 C158.68990066 35.13746352 177.03385945 47.86354372 184 66.9375 C185.25305518 71.32319314 185.70232546 75.71180085 186.0625 80.25 C186.65675781 80.27578125 187.25101562 80.3015625 187.86328125 80.328125 C204.72413097 81.4819001 219.62307997 90.59145058 231.25 102.48828125 C241.71461738 114.64931121 247.78901865 129.71261565 248.375 145.75 C248.10941262 148.72457863 247.61322664 151.26514081 246.6875 154.09375 C245.84885404 156.98707856 245.32562008 159.91840594 244.75 162.875 C240.04871784 184.89189565 228.22061941 203.04139166 211.05859375 217.34765625 C208.99417094 219.07284353 208.99417094 219.07284353 208.20532227 221.18041992 C206.77479375 223.77101814 205.28274987 224.70609944 202.78125 226.265625 C201.93949219 226.79414063 201.09773438 227.32265625 200.23046875 227.8671875 C199.35003906 228.40601563 198.46960938 228.94484375 197.5625 229.5 C196.68207031 230.05429687 195.80164063 230.60859375 194.89453125 231.1796875 C188.34794489 235.25 188.34794489 235.25 186.0625 235.25 C188.26455492 237.74773721 190.76017782 239.38139995 193.59277344 241.10302734 C215.10504572 254.19309768 233.49104185 272.59024405 239.64453125 297.6171875 C242.31863155 314.46152023 237.77347941 329.92606711 228.26171875 343.89453125 C226.58840183 346.07244042 224.85201693 348.16711964 223.0625 350.25 C222.60488281 350.83910156 222.14726562 351.42820312 221.67578125 352.03515625 C217.22147483 357.63813768 211.70053484 361.89202919 206.0625 366.25 C205.11375 367.01054687 204.165 367.77109375 203.1875 368.5546875 C185.71999111 381.87366303 164.82399523 391.3467474 144.0625 398.25 C143.06959961 398.58193359 142.07669922 398.91386719 141.05371094 399.25585938 C76.3764082 420.5947652 5.52519688 425.80736126 -61.9375 417.25 C-62.94505341 417.12271515 -62.94505341 417.12271515 -63.97296143 416.99285889 C-102.77480811 412.0195067 -141.78170444 402.84447288 -176.9375 385.25 C-177.60297852 384.92467285 -178.26845703 384.5993457 -178.95410156 384.26416016 C-194.27476191 376.73360139 -207.72287803 367.14516263 -219.9375 355.25 C-220.91589844 354.38181641 -220.91589844 354.38181641 -221.9140625 353.49609375 C-233.50429831 342.93786524 -241.09084825 326.78695863 -242.140625 311.2421875 C-242.43833021 291.44479114 -234.09585093 274.87985066 -220.53613281 260.84326172 C-205.86790113 246.22431242 -188.29597272 236.49687703 -169.9375 227.25 C-170.11418213 226.66589355 -170.29086426 226.08178711 -170.47290039 225.47998047 C-175.76536093 207.91886913 -181.00334753 190.38129633 -183.9375 172.25 C-184.08703125 171.35490723 -184.2365625 170.45981445 -184.390625 169.53759766 C-188.77855241 142.12723645 -188.47949357 113.40277871 -185.25 85.875 C-185.10167725 84.5645874 -184.95335449 83.2541748 -184.80053711 81.90405273 C-182.45558653 64.35529944 -174.38726234 50.59748486 -160.57568359 39.49267578 C-143.88594451 26.8323521 -124.65800018 18.84397825 -104.9375 12.25 C-103.73222656 11.84523438 -102.52695313 11.44046875 -101.28515625 11.0234375 C-98.09907676 10.28733045 -95.35091392 10.23420083 -92.09912109 10.31835938 C-87.87983139 10.18492803 -83.83588248 8.99212678 -79.75 8 C-70.51010749 5.87525788 -61.26779669 4.28566905 -51.875 3 C-50.69977783 2.83725586 -49.52455566 2.67451172 -48.3137207 2.50683594 C-32.19207552 0.37223902 -16.23962593 0.00890454 0 0 Z M189.0625 128.25 C189.02286133 128.95680908 188.98322266 129.66361816 188.94238281 130.3918457 C187.95073587 147.41283538 186.17843829 164.04619661 183.39794922 180.87524414 C182.99256611 183.34536326 182.99256611 183.34536326 183.0625 186.25 C193.17163298 183.09089594 201.56269355 173.98963496 207.0625 165.25 C210.57603478 158.1049386 211.54273715 150.21272746 209.25390625 142.5390625 C206.48403868 136.15590749 202.49883439 132.00117764 196.0625 129.25 C193.73965152 128.85008691 191.40582729 128.50371792 189.0625 128.25 Z " fill="#FECC3A" transform="translate(252.9375,78.75)"/>
<path d="M0 0 C1.10787872 -0.00067474 2.21575745 -0.00134949 3.35720825 -0.00204468 C41.9303903 0.03516295 81.87775869 3.85634185 118.02734375 18.26953125 C121.13434976 19.394322 121.13434976 19.394322 124.8359375 19.60546875 C129.99853941 20.16164881 134.18789732 22.38233202 138.75 24.75 C139.62849609 25.19996338 140.50699219 25.64992676 141.41210938 26.11352539 C158.68990066 35.13746352 177.03385945 47.86354372 184 66.9375 C185.25305518 71.32319314 185.70232546 75.71180085 186.0625 80.25 C186.65675781 80.27578125 187.25101562 80.3015625 187.86328125 80.328125 C204.72413097 81.4819001 219.62307997 90.59145058 231.25 102.48828125 C241.71461738 114.64931121 247.78901865 129.71261565 248.375 145.75 C248.10941262 148.72457863 247.61322664 151.26514081 246.6875 154.09375 C245.84885404 156.98707856 245.32562008 159.91840594 244.75 162.875 C240.04871784 184.89189565 228.22061941 203.04139166 211.05859375 217.34765625 C208.99417094 219.07284353 208.99417094 219.07284353 208.20532227 221.18041992 C206.77479375 223.77101814 205.28274987 224.70609944 202.78125 226.265625 C201.93949219 226.79414063 201.09773438 227.32265625 200.23046875 227.8671875 C199.35003906 228.40601563 198.46960938 228.94484375 197.5625 229.5 C196.68207031 230.05429687 195.80164063 230.60859375 194.89453125 231.1796875 C188.34794489 235.25 188.34794489 235.25 186.0625 235.25 C188.26455492 237.74773721 190.76017782 239.38139995 193.59277344 241.10302734 C215.10504572 254.19309768 233.49104185 272.59024405 239.64453125 297.6171875 C242.31863155 314.46152023 237.77347941 329.92606711 228.26171875 343.89453125 C226.58840183 346.07244042 224.85201693 348.16711964 223.0625 350.25 C222.60488281 350.83910156 222.14726562 351.42820312 221.67578125 352.03515625 C217.22147483 357.63813768 211.70053484 361.89202919 206.0625 366.25 C205.11375 367.01054687 204.165 367.77109375 203.1875 368.5546875 C185.71999111 381.87366303 164.82399523 391.3467474 144.0625 398.25 C143.06959961 398.58193359 142.07669922 398.91386719 141.05371094 399.25585938 C76.3764082 420.5947652 5.52519688 425.80736126 -61.9375 417.25 C-62.94505341 417.12271515 -62.94505341 417.12271515 -63.97296143 416.99285889 C-102.77480811 412.0195067 -141.78170444 402.84447288 -176.9375 385.25 C-177.60297852 384.92467285 -178.26845703 384.5993457 -178.95410156 384.26416016 C-194.27476191 376.73360139 -207.72287803 367.14516263 -219.9375 355.25 C-220.91589844 354.38181641 -220.91589844 354.38181641 -221.9140625 353.49609375 C-233.50429831 342.93786524 -241.09084825 326.78695863 -242.140625 311.2421875 C-242.43833021 291.44479114 -234.09585093 274.87985066 -220.53613281 260.84326172 C-205.86790113 246.22431242 -188.29597272 236.49687703 -169.9375 227.25 C-170.11418213 226.66589355 -170.29086426 226.08178711 -170.47290039 225.47998047 C-175.76536093 207.91886913 -181.00334753 190.38129633 -183.9375 172.25 C-184.08703125 171.35490723 -184.2365625 170.45981445 -184.390625 169.53759766 C-188.77855241 142.12723645 -188.47949357 113.40277871 -185.25 85.875 C-185.10167725 84.5645874 -184.95335449 83.2541748 -184.80053711 81.90405273 C-182.45558653 64.35529944 -174.38726234 50.59748486 -160.57568359 39.49267578 C-143.88594451 26.8323521 -124.65800018 18.84397825 -104.9375 12.25 C-103.73222656 11.84523438 -102.52695313 11.44046875 -101.28515625 11.0234375 C-98.09907676 10.28733045 -95.35091392 10.23420083 -92.09912109 10.31835938 C-87.87983139 10.18492803 -83.83588248 8.99212678 -79.75 8 C-70.51010749 5.87525788 -61.26779669 4.28566905 -51.875 3 C-50.69977783 2.83725586 -49.52455566 2.67451172 -48.3137207 2.50683594 C-32.19207552 0.37223902 -16.23962593 0.00890454 0 0 Z M-180.9375 94.25 C-182.94087557 102.99936631 -183.25818565 111.49058353 -183.1875 120.4375 C-183.18439819 121.13730988 -183.18129639 121.83711975 -183.17810059 122.55813599 C-183.11113525 135.52567941 -182.4940578 148.3704598 -180.9375 161.25 C-180.81922852 162.2395166 -180.70095703 163.2290332 -180.57910156 164.24853516 C-178.42004342 181.41936525 -174.13407631 197.76394708 -168.9375 214.25 C-168.67179199 215.095625 -168.40608398 215.94125 -168.13232422 216.8125 C-160.69986285 240.03956322 -150.00230588 265.70389738 -133.9375 284.25 C-133.339375 284.95511719 -132.74125 285.66023437 -132.125 286.38671875 C-129.31806486 288.777626 -126.30326737 289.80966543 -122.875 291 C-113.25297906 294.59859366 -105.03663786 299.83739605 -98.9375 308.25 C-98.09832031 308.0334375 -98.09832031 308.0334375 -97.2421875 307.8125 C-86.3630525 305.29385781 -73.82315259 304.12321364 -63.9375 310.25 C-61.3333405 312.97278716 -59.67168362 315.92278725 -57.9375 319.25 C-57.11765625 320.68085938 -57.11765625 320.68085938 -56.28125 322.140625 C-51.75451756 330.1264643 -51.75451756 330.1264643 -50.9375 334.25 C-48.73237114 334.88621365 -46.52313315 335.50818383 -44.3125 336.125 C-43.08273438 336.47304688 -41.85296875 336.82109375 -40.5859375 337.1796875 C-28.53874884 340.15534583 -16.39628116 340.62280767 -4.0625 340.875 C-2.48826273 340.91330893 -0.91404352 340.95236739 0.66015625 340.9921875 C4.46078566 341.08673204 8.26151182 341.1712529 12.0625 341.25 C12.3925 342.24 12.7225 343.23 13.0625 344.25 C8.38877069 344.17982621 3.71582954 344.09129034 -0.95727539 343.98754883 C-2.5385646 343.95481488 -4.11995628 343.92663329 -5.70141602 343.90356445 C-17.74146657 343.72340451 -29.48908152 342.74314672 -41.17749023 339.65893555 C-44.07628579 338.98540488 -46.97774411 339.19308162 -49.9375 339.25 C-50.205625 340.00023437 -50.47375 340.75046875 -50.75 341.5234375 C-56.92448544 357.65021855 -67.70525193 366.67199833 -83.078125 374 C-94.11025682 378.82278987 -106.54420765 381.785351 -118.3125 377.75 C-124.81116955 374.73867382 -127.80455711 369.97641769 -130.55078125 363.53515625 C-133.83311318 355.67178827 -133.83311318 355.67178827 -140.328125 350.640625 C-142.88862969 350.04001279 -145.46624587 349.5086824 -148.0546875 349.04296875 C-159.20638719 346.76550895 -169.50298111 339.22312294 -176.44140625 330.3203125 C-180.07262868 324.22188319 -180.03081526 317.12873211 -178.50976562 310.34130859 C-176.38707008 302.31807182 -174.00352793 294.69338956 -166.83984375 289.82421875 C-166.19144531 289.53160156 -165.54304688 289.23898437 -164.875 288.9375 C-164.22402344 288.63199219 -163.57304687 288.32648438 -162.90234375 288.01171875 C-159.48202822 286.6857515 -156.26632697 286.11644135 -152.609375 285.93359375 C-151.41054687 285.87075195 -151.41054687 285.87075195 -150.1875 285.80664062 C-149.3625 285.76732422 -148.5375 285.72800781 -147.6875 285.6875 C-146.84703125 285.64431641 -146.0065625 285.60113281 -145.140625 285.55664062 C-143.07309329 285.45091457 -141.00531719 285.34998705 -138.9375 285.25 C-140.33937761 281.40006745 -142.1533698 278.18636771 -144.375 274.75 C-153.01880957 261.01012217 -160.38381974 246.50504578 -165.9375 231.25 C-181.46309433 233.75934332 -197.06446787 246.39911448 -208.9375 256.25 C-209.49115234 256.70197754 -210.04480469 257.15395508 -210.61523438 257.61962891 C-223.01615147 267.86272659 -234.5369017 281.84202717 -236.9375 298.25 C-238.41201204 317.59920901 -234.09341367 333.03380886 -221.43310547 348.03222656 C-195.37860997 377.27266864 -155.86958756 392.33940002 -118.9375 402.25 C-118.18017578 402.45334961 -117.42285156 402.65669922 -116.64257812 402.86621094 C-92.22098576 409.29769849 -67.19966249 412.7280006 -42.07983398 414.96777344 C-40.11447327 415.14429096 -38.15012964 415.33305034 -36.18774414 415.54003906 C41.07654512 423.18359432 142.62362168 411.75659095 204.86328125 362.01171875 C218.23542052 350.67564936 228.02421321 338.92604986 234.0625 322.25 C234.31 321.57582031 234.5575 320.90164063 234.8125 320.20703125 C238.85559023 307.03891098 235.4348594 293.52528099 229.375 281.625 C225.90617577 275.62864052 221.65682992 270.41572558 217.0625 265.25 C216.40894531 264.50105469 215.75539063 263.75210938 215.08203125 262.98046875 C208.61583306 256.03899873 200.85886434 250.83816704 193.02001953 245.58007812 C191.34069314 244.43902423 189.6957747 243.2476163 188.05859375 242.046875 C183.81556143 239.02544031 183.81556143 239.02544031 178.8125 238.390625 C176.39578701 239.11228235 174.31428792 240.11833223 172.0625 241.25 C171.23621094 241.50523437 170.40992188 241.76046875 169.55859375 242.0234375 C163.74221007 244.10135167 161.36539879 246.90581322 158.66430664 252.26879883 C157.65325616 254.43933919 156.70304124 256.62998043 155.75390625 258.828125 C155.19574219 259.95734375 154.63757813 261.0865625 154.0625 262.25 C153.0725 262.58 152.0825 262.91 151.0625 263.25 C153.04223176 257.94900772 155.24953622 252.81664608 157.74829102 247.73803711 C176.49662067 209.35947976 185.12203165 167.32837611 185.3125 124.8125 C185.32651855 122.84035522 185.32651855 122.84035522 185.34082031 120.82836914 C185.31131506 111.79465523 184.45940024 103.15881879 183.0625 94.25 C181.85385198 96.06297203 180.66419528 97.88909347 179.51171875 99.73828125 C178.93035156 100.67027344 178.34898437 101.60226563 177.75 102.5625 C177.17636719 103.48675781 176.60273438 104.41101563 176.01171875 105.36328125 C154.83283778 136.72839756 108.91308076 148.69403026 74.12109375 155.67578125 C71.76933981 156.1230671 69.41648364 156.56460103 67.0625 157 C66.02230713 157.19843506 64.98211426 157.39687012 63.91040039 157.60131836 C42.42106477 161.40561935 20.57508552 161.68966055 -1.1875 161.6875 C-2.20090895 161.68864618 -2.20090895 161.68864618 -3.2347908 161.68981552 C-25.49464271 161.71056394 -47.06567013 160.5764626 -68.9375 156.25 C-70.03288086 156.04713379 -71.12826172 155.84426758 -72.25683594 155.63525391 C-78.88178188 154.40272977 -85.41754479 152.95158728 -91.9375 151.25 C-92.8567627 151.01087891 -93.77602539 150.77175781 -94.72314453 150.52539062 C-116.29788747 144.76026955 -137.73925728 136.39317529 -155.9375 123.25 C-156.49211914 122.84958496 -157.04673828 122.44916992 -157.61816406 122.03662109 C-167.2862511 114.88776459 -175.98865556 105.83327702 -179.9375 94.25 C-180.2675 94.25 -180.5975 94.25 -180.9375 94.25 Z M189.0625 128.25 C189.02286133 128.95680908 188.98322266 129.66361816 188.94238281 130.3918457 C187.95073587 147.41283538 186.17843829 164.04619661 183.39794922 180.87524414 C182.99256611 183.34536326 182.99256611 183.34536326 183.0625 186.25 C193.17163298 183.09089594 201.56269355 173.98963496 207.0625 165.25 C210.57603478 158.1049386 211.54273715 150.21272746 209.25390625 142.5390625 C206.48403868 136.15590749 202.49883439 132.00117764 196.0625 129.25 C193.73965152 128.85008691 191.40582729 128.50371792 189.0625 128.25 Z " fill="#FE7A43" transform="translate(252.9375,78.75)"/>
<path d="M0 0 C0.22026855 0.53665283 0.44053711 1.07330566 0.66748047 1.6262207 C7.61834881 18.45661373 15.02609537 34.94586165 25.6015625 49.84765625 C27 52 27 52 27 54 C25.22496094 54.03867187 25.22496094 54.03867187 23.4140625 54.078125 C12.81901529 54.41440453 4.81081106 55.4489488 -4.375 61.0625 C-8.10377556 65.23517741 -9.36642713 69.72230303 -11 75 C-11.61875 76.4540625 -11.61875 76.4540625 -12.25 77.9375 C-14.0100325 85.12429937 -14.18828061 92.72786565 -10.30078125 99.20703125 C-1.86140394 110.83968646 11.42188698 116.57645868 25 120 C25.66249756 120.08991211 26.32499512 120.17982422 27.00756836 120.27246094 C29.81135036 121.29626566 30.29049159 122.69998722 31.62109375 125.33203125 C32.08193359 126.21310547 32.54277344 127.09417969 33.01757812 128.00195312 C33.48615234 128.92943359 33.95472656 129.85691406 34.4375 130.8125 C38.50955428 138.83800503 41.66128472 144.39348746 50.64453125 147.4609375 C64.37820669 150.6039677 80.07396763 145.4968222 91.765625 138.296875 C94.23487175 136.5964955 96.6251055 134.82913778 99 133 C100.051875 132.236875 101.10375 131.47375 102.1875 130.6875 C108.91654289 124.25752569 113.00612782 116.73987532 116 108 C120.57427624 107.80940516 124.22959344 108.23297319 128.68725586 109.42773438 C139.76938134 112.16989653 150.971557 112.40146432 162.3125 112.625 C163.93947142 112.66329313 165.56642502 112.70235087 167.19335938 112.7421875 C171.12875714 112.83691647 175.0642488 112.92138085 179 113 C179 112.34 179 111.68 179 111 C179.77786865 110.91548584 180.5557373 110.83097168 181.35717773 110.74389648 C199.47044756 108.71388085 216.612153 105.68863536 234 100 C234.87221191 99.71753418 235.74442383 99.43506836 236.64306641 99.14404297 C258.07191753 92.07545529 275.55477704 81.49268875 292 66 C292.66386719 65.40058594 293.32773437 64.80117188 294.01171875 64.18359375 C303.02740872 55.71652589 310.41073176 45.07781666 315.78125 33.9765625 C317 32 317 32 320 31 C320.91092752 29.08600516 321.81255881 27.16665139 322.65136719 25.2199707 C326.57106243 16.34893564 330.3842307 12.16146739 339.3269043 8.45068359 C342.33051149 7.3814478 344.48590299 6.87455417 347.609375 7.63671875 C348.39828125 8.08660156 349.1871875 8.53648437 350 9 C350.94875 9.5259375 351.8975 10.051875 352.875 10.59375 C373.16282996 22.96932628 391.38047113 38.11116704 400 61 C400.36738281 61.97453125 400.36738281 61.97453125 400.7421875 62.96875 C404.99139725 76.70592124 401.1104976 91.17513224 394.9375 103.625 C390.90902904 110.72237051 385.69482138 116.23857252 380 122 C379.04867187 123.05960938 379.04867187 123.05960938 378.078125 124.140625 C334.95599891 171.07886844 250.18410163 182.07637542 190.20361328 184.80957031 C164.89738404 185.81423301 139.16467563 186.11552079 114 183 C113.33909363 182.91987671 112.67818726 182.83975342 111.99725342 182.75720215 C93.09874912 180.46190651 74.45575335 177.7609788 56 173 C54.06403234 172.51990389 52.12782576 172.04077036 50.19140625 171.5625 C13.06645863 162.27439997 -23.21035382 148.06395649 -51 121 C-51.66386719 120.40960938 -52.32773437 119.81921875 -53.01171875 119.2109375 C-63.13062474 109.97885698 -70.48713735 95.81968903 -71.44140625 82.125 C-72.18072632 62.67590421 -65.53322072 48.43559399 -53 33.9375 C-40.5875973 20.64591306 -24.89979093 11.48986819 -9 3 C-7.86949219 2.39414062 -6.73898438 1.78828125 -5.57421875 1.1640625 C-3 0 -3 0 0 0 Z " fill="#F2EBEB" transform="translate(87,310)"/>
<path d="M0 0 C-0.25219727 1.90307617 -0.25219727 1.90307617 -1 4 C-2.73022461 4.93481445 -2.73022461 4.93481445 -4.96484375 5.55078125 C-5.78065918 5.79006348 -6.59647461 6.0293457 -7.43701172 6.27587891 C-8.28279785 6.51483887 -9.12858398 6.75379883 -10 7 C-11.56684924 7.50496385 -13.13072229 8.01926025 -14.69140625 8.54296875 C-15.48289063 8.80787109 -16.274375 9.07277344 -17.08984375 9.34570312 C-27.19919587 12.7873546 -36.63394974 16.8809246 -46 22 C-47.09054688 22.5878125 -48.18109375 23.175625 -49.3046875 23.78125 C-65.34931877 32.76297743 -78.46998158 44.48767788 -85 62 C-87.08743655 75.95884439 -83.00877466 85.52593768 -75.625 97.16796875 C-50.31753548 130.46310176 5.96552857 140.06356395 44.24707031 145.45751953 C84.71563072 150.86772367 126.315823 149.08055426 166.37890625 141.49414062 C168.83263388 141.03155263 171.29003861 140.59978425 173.75 140.171875 C202.10619808 134.98572331 235.0732464 124.30008519 256.14453125 103.65234375 C258 102 258 102 260 102 C260.40605469 101.12408203 260.40605469 101.12408203 260.8203125 100.23046875 C261.99140114 98.0162581 263.30235743 96.25589509 264.875 94.3125 C271.96596569 85.01969411 273.79575323 75.52368569 273 64 C270.24984102 49.50339928 259.35346085 38.27915652 247.68505859 30.07641602 C239.52555932 24.56901996 230.87581122 20.21868964 222 16 C219.99774776 15.00451721 217.99691362 14.00614908 216 13 C216 11.68 216 10.36 216 9 C221.83603279 9.53141112 226.41993974 11.88353297 231.5625 14.5 C232.8937793 15.17494507 232.8937793 15.17494507 234.25195312 15.86352539 C251.58751966 24.82558525 269.9634675 37.59193483 276.9375 56.6875 C278.19055518 61.07319314 278.63982546 65.46180085 279 70 C279.59425781 70.02578125 280.18851562 70.0515625 280.80078125 70.078125 C297.66163097 71.2319001 312.56057997 80.34145058 324.1875 92.23828125 C334.65211738 104.39931121 340.72651865 119.46261565 341.3125 135.5 C341.04691262 138.47457863 340.55072664 141.01514081 339.625 143.84375 C338.78635404 146.73707856 338.26312008 149.66840594 337.6875 152.625 C332.98621784 174.64189565 321.15811941 192.79139166 303.99609375 207.09765625 C301.93167094 208.82284353 301.93167094 208.82284353 301.14282227 210.93041992 C299.71229375 213.52101814 298.22024987 214.45609944 295.71875 216.015625 C294.87699219 216.54414063 294.03523438 217.07265625 293.16796875 217.6171875 C292.28753906 218.15601563 291.40710938 218.69484375 290.5 219.25 C289.61957031 219.80429687 288.73914063 220.35859375 287.83203125 220.9296875 C281.28544489 225 281.28544489 225 279 225 C281.20205492 227.49773721 283.69767782 229.13139995 286.53027344 230.85302734 C308.04254572 243.94309768 326.42854185 262.34024405 332.58203125 287.3671875 C335.25613155 304.21152023 330.71097941 319.67606711 321.19921875 333.64453125 C319.52590183 335.82244042 317.78951693 337.91711964 316 340 C315.54238281 340.58910156 315.08476562 341.17820312 314.61328125 341.78515625 C310.15897483 347.38813768 304.63803484 351.64202919 299 356 C298.05125 356.76054687 297.1025 357.52109375 296.125 358.3046875 C278.65749111 371.62366303 257.76149523 381.0967474 237 388 C236.00709961 388.33193359 235.01419922 388.66386719 233.99121094 389.00585938 C169.3139082 410.3447652 98.46269688 415.55736126 31 407 C29.99244659 406.87271515 29.99244659 406.87271515 28.96453857 406.74285889 C-9.83730811 401.7695067 -48.84420444 392.59447288 -84 375 C-84.66547852 374.67467285 -85.33095703 374.3493457 -86.01660156 374.01416016 C-101.33726191 366.48360139 -114.78537803 356.89516263 -127 345 C-127.97839844 344.13181641 -127.97839844 344.13181641 -128.9765625 343.24609375 C-140.56679831 332.68786524 -148.15334825 316.53695863 -149.203125 300.9921875 C-149.50083021 281.19479114 -141.15835093 264.62985066 -127.59863281 250.59326172 C-112.93040113 235.97431242 -95.35847272 226.24687703 -77 217 C-77.17668213 216.41589355 -77.35336426 215.83178711 -77.53540039 215.22998047 C-82.82786093 197.66886913 -88.06584753 180.13129633 -91 162 C-91.14953125 161.10490723 -91.2990625 160.20981445 -91.453125 159.28759766 C-95.84105241 131.87723645 -95.54199357 103.15277871 -92.3125 75.625 C-92.16417725 74.3145874 -92.01585449 73.0041748 -91.86303711 71.65405273 C-89.51808653 54.10529944 -81.44976234 40.34748486 -67.63818359 29.24267578 C-50.91888878 16.55993203 -21.52246472 -1.3043918 0 0 Z M-88 84 C-90.00337557 92.74936631 -90.32068565 101.24058353 -90.25 110.1875 C-90.24689819 110.88730988 -90.24379639 111.58711975 -90.24060059 112.30813599 C-90.17363525 125.27567941 -89.5565578 138.1204598 -88 151 C-87.88172852 151.9895166 -87.76345703 152.9790332 -87.64160156 153.99853516 C-85.48254342 171.16936525 -81.19657631 187.51394708 -76 204 C-75.73429199 204.845625 -75.46858398 205.69125 -75.19482422 206.5625 C-67.76236285 229.78956322 -57.06480588 255.45389738 -41 274 C-40.401875 274.70511719 -39.80375 275.41023437 -39.1875 276.13671875 C-36.38056486 278.527626 -33.36576737 279.55966543 -29.9375 280.75 C-20.31547906 284.34859366 -12.09913786 289.58739605 -6 298 C-5.16082031 297.7834375 -5.16082031 297.7834375 -4.3046875 297.5625 C6.5744475 295.04385781 19.11434741 293.87321364 29 300 C31.6041595 302.72278716 33.26581638 305.67278725 35 309 C35.81984375 310.43085938 35.81984375 310.43085938 36.65625 311.890625 C41.18298244 319.8764643 41.18298244 319.8764643 42 324 C44.20512886 324.63621365 46.41436685 325.25818383 48.625 325.875 C49.85476562 326.22304688 51.08453125 326.57109375 52.3515625 326.9296875 C64.39875116 329.90534583 76.54121884 330.37280767 88.875 330.625 C90.44923727 330.66330893 92.02345648 330.70236739 93.59765625 330.7421875 C97.39828566 330.83673204 101.19901182 330.9212529 105 331 C105.33 331.99 105.66 332.98 106 334 C101.32627069 333.92982621 96.65332954 333.84129034 91.98022461 333.73754883 C90.3989354 333.70481488 88.81754372 333.67663329 87.23608398 333.65356445 C75.19603343 333.47340451 63.44841848 332.49314672 51.76000977 329.40893555 C48.86121421 328.73540488 45.95975589 328.94308162 43 329 C42.731875 329.75023437 42.46375 330.50046875 42.1875 331.2734375 C36.01301456 347.40021855 25.23224807 356.42199833 9.859375 363.75 C-1.17275682 368.57278987 -13.60670765 371.535351 -25.375 367.5 C-31.87366955 364.48867382 -34.86705711 359.72641769 -37.61328125 353.28515625 C-40.89561318 345.42178827 -40.89561318 345.42178827 -47.390625 340.390625 C-49.95112969 339.79001279 -52.52874587 339.2586824 -55.1171875 338.79296875 C-66.26888719 336.51550895 -76.56548111 328.97312294 -83.50390625 320.0703125 C-87.13512868 313.97188319 -87.09331526 306.87873211 -85.57226562 300.09130859 C-83.44957008 292.06807182 -81.06602793 284.44338956 -73.90234375 279.57421875 C-73.25394531 279.28160156 -72.60554688 278.98898437 -71.9375 278.6875 C-71.28652344 278.38199219 -70.63554688 278.07648438 -69.96484375 277.76171875 C-66.54452822 276.4357515 -63.32882697 275.86644135 -59.671875 275.68359375 C-58.47304687 275.62075195 -58.47304687 275.62075195 -57.25 275.55664062 C-56.425 275.51732422 -55.6 275.47800781 -54.75 275.4375 C-53.90953125 275.39431641 -53.0690625 275.35113281 -52.203125 275.30664062 C-50.13559329 275.20091457 -48.06781719 275.09998705 -46 275 C-47.40187761 271.15006745 -49.2158698 267.93636771 -51.4375 264.5 C-60.08130957 250.76012217 -67.44631974 236.25504578 -73 221 C-88.52559433 223.50934332 -104.12696787 236.14911448 -116 246 C-116.55365234 246.45197754 -117.10730469 246.90395508 -117.67773438 247.36962891 C-130.07865147 257.61272659 -141.5994017 271.59202717 -144 288 C-145.47451204 307.34920901 -141.15591367 322.78380886 -128.49560547 337.78222656 C-102.44110997 367.02266864 -62.93208756 382.08940002 -26 392 C-25.24267578 392.20334961 -24.48535156 392.40669922 -23.70507812 392.61621094 C0.71651424 399.04769849 25.73783751 402.4780006 50.85766602 404.71777344 C52.82302673 404.89429096 54.78737036 405.08305034 56.74975586 405.29003906 C134.01404512 412.93359432 235.56112168 401.50659095 297.80078125 351.76171875 C311.17292052 340.42564936 320.96171321 328.67604986 327 312 C327.2475 311.32582031 327.495 310.65164063 327.75 309.95703125 C331.79309023 296.78891098 328.3723594 283.27528099 322.3125 271.375 C318.84367577 265.37864052 314.59432992 260.16572558 310 255 C309.34644531 254.25105469 308.69289063 253.50210938 308.01953125 252.73046875 C301.55333306 245.78899873 293.79636434 240.58816704 285.95751953 235.33007812 C284.27819314 234.18902423 282.6332747 232.9976163 280.99609375 231.796875 C276.75306143 228.77544031 276.75306143 228.77544031 271.75 228.140625 C269.33328701 228.86228235 267.25178792 229.86833223 265 231 C264.17371094 231.25523437 263.34742188 231.51046875 262.49609375 231.7734375 C256.67971007 233.85135167 254.30289879 236.65581322 251.60180664 242.01879883 C250.59075616 244.18933919 249.64054124 246.37998043 248.69140625 248.578125 C248.13324219 249.70734375 247.57507813 250.8365625 247 252 C246.01 252.33 245.02 252.66 244 253 C245.97973176 247.69900772 248.18703622 242.56664608 250.68579102 237.48803711 C269.43412067 199.10947976 278.05953165 157.07837611 278.25 114.5625 C278.26401855 112.59035522 278.26401855 112.59035522 278.27832031 110.57836914 C278.24881506 101.54465523 277.39690024 92.90881879 276 84 C274.79135198 85.81297203 273.60169528 87.63909347 272.44921875 89.48828125 C271.86785156 90.42027344 271.28648437 91.35226563 270.6875 92.3125 C270.11386719 93.23675781 269.54023438 94.16101563 268.94921875 95.11328125 C247.77033778 126.47839756 201.85058076 138.44403026 167.05859375 145.42578125 C164.70683981 145.8730671 162.35398364 146.31460103 160 146.75 C158.95980713 146.94843506 157.91961426 147.14687012 156.84790039 147.35131836 C135.35856477 151.15561935 113.51258552 151.43966055 91.75 151.4375 C90.73659105 151.43864618 90.73659105 151.43864618 89.7027092 151.43981552 C67.44285729 151.46056394 45.87182987 150.3264626 24 146 C22.90461914 145.79713379 21.80923828 145.59426758 20.68066406 145.38525391 C14.05571812 144.15272977 7.51995521 142.70158728 1 141 C0.0807373 140.76087891 -0.83852539 140.52175781 -1.78564453 140.27539062 C-23.36038747 134.51026955 -44.80175728 126.14317529 -63 113 C-63.55461914 112.59958496 -64.10923828 112.19916992 -64.68066406 111.78662109 C-74.3487511 104.63776459 -83.05115556 95.58327702 -87 84 C-87.33 84 -87.66 84 -88 84 Z M282 118 C281.96036133 118.70680908 281.92072266 119.41361816 281.87988281 120.1418457 C280.88823587 137.16283538 279.11593829 153.79619661 276.33544922 170.62524414 C275.93006611 173.09536326 275.93006611 173.09536326 276 176 C286.10913298 172.84089594 294.50019355 163.73963496 300 155 C303.51353478 147.8549386 304.48023715 139.96272746 302.19140625 132.2890625 C299.42153868 125.90590749 295.43633439 121.75117764 289 119 C286.67715152 118.60008691 284.34332729 118.25371792 282 118 Z " fill="#0A0803" transform="translate(160,89)"/>
<path d="M0 0 C1.0854007 0.00182281 2.17080139 0.00364563 3.28909302 0.00552368 C41.01745127 0.11166246 86.0975396 2.1112698 120.5 19.3125 C121.50546636 20.641716 122.50536776 21.97515768 123.5 23.3125 C126.21990872 24.84733892 126.21990872 24.84733892 129.375 26.125 C149.98090322 35.27301475 170.79152548 47.73437393 179.375 69.6875 C182.32188737 79.63324489 180.84228167 89.83923033 176.140625 98.9453125 C159.47036398 127.73158797 123.01061607 140.29348287 92.59375 148.74609375 C84.18760313 150.97714067 75.69554004 152.54237882 67.10986328 153.89941406 C64.58953793 154.29832805 62.0742786 154.72136897 59.55859375 155.1484375 C14.96498845 162.52398158 -31.24753698 161.14090036 -75.5 152.3125 C-76.29792969 152.15668457 -77.09585938 152.00086914 -77.91796875 151.84033203 C-109.85080296 145.52196345 -150.45772164 132.86057261 -170.9375 105.875 C-172.16062717 104.04413949 -173.35002588 102.19017138 -174.5 100.3125 C-175.02722656 99.47332031 -175.55445313 98.63414062 -176.09765625 97.76953125 C-180.5856833 89.50606084 -181.53374561 79.41564267 -178.93603516 70.34277344 C-175.70370468 61.62520756 -170.09740899 54.70863211 -163.5 48.3125 C-162.80132812 47.61640625 -162.10265625 46.9203125 -161.3828125 46.203125 C-144.73724374 30.47214793 -119.61148792 19.85947084 -97.43359375 15.015625 C-95.12546731 14.39245728 -95.12546731 14.39245728 -93.5 11.3125 C-83.91597622 7.81687013 -73.53474357 6.26157742 -63.5 4.6875 C-62.28183594 4.48382813 -61.06367188 4.28015625 -59.80859375 4.0703125 C-39.95210058 0.89327359 -20.08779758 -0.07064649 0 0 Z M-55.5 43.3125 C-57.21002197 43.61051514 -57.21002197 43.61051514 -58.95458984 43.91455078 C-88.17644407 49.22291592 -124.98570629 57.70797412 -144.87890625 81.96484375 C-147.79496025 86.18785208 -149.89300902 90.44197229 -151.5 95.3125 C-151.76167969 96.075625 -152.02335937 96.83875 -152.29296875 97.625 C-152.79657484 100.41727138 -152.66536016 101.70368236 -151.5 104.3125 C-140.71258931 115.90213902 -124.42016493 123.6805682 -109.5 128.3125 C-107.85 126.0025 -106.2 123.6925 -104.5 121.3125 C-103.9225 122.240625 -103.345 123.16875 -102.75 124.125 C-100.74989605 127.30529146 -100.74989605 127.30529146 -98.25 129 C-97.6725 129.433125 -97.095 129.86625 -96.5 130.3125 C-96.5 131.3025 -96.5 132.2925 -96.5 133.3125 C-82.04977512 137.08572032 -67.67231323 140.56887826 -52.875 142.6875 C-51.81313477 142.84250977 -50.75126953 142.99751953 -49.65722656 143.15722656 C-32.18351002 145.50093618 -14.47706108 145.58318011 3.125 145.625 C4.1914978 145.62761841 5.25799561 145.63023682 6.35681152 145.63293457 C25.04083525 145.63781527 43.07157522 144.35560247 61.5 141.3125 C62.49725098 141.15765137 63.49450195 141.00280273 64.52197266 140.84326172 C93.05832225 136.36570765 125.16373786 127.49103693 147.5 108.3125 C148.510625 107.508125 149.52125 106.70375 150.5625 105.875 C152.73467246 103.00212674 153.16786299 101.07744899 152.91796875 97.484375 C150.55572818 85.20955486 141.16499064 75.73843423 131.3203125 68.76953125 C128.49479839 66.95160614 125.93869834 65.46205625 122.75 64.375 C119.47852088 62.83013486 118.29243591 60.36627971 116.5 57.3125 C116.17 58.3025 115.84 59.2925 115.5 60.3125 C114.3140625 59.86519531 113.128125 59.41789062 111.90625 58.95703125 C91.52249168 51.31868687 71.7196321 45.98287802 50.1875 42.625 C49.43694336 42.50560059 48.68638672 42.38620117 47.91308594 42.26318359 C14.93578363 37.37529945 -22.68590215 37.58713695 -55.5 43.3125 Z " fill="#FAB710" transform="translate(253.5,78.6875)"/>
<path d="M0 0 C0.33 0 0.66 0 1 0 C1.22173521 18.08335911 1.41304645 36.03658317 -1 54 C-1.11827148 54.89348145 -1.23654297 55.78696289 -1.35839844 56.70751953 C-5.46782798 86.3152797 -14.87262672 115.57512748 -28.31958008 142.23950195 C-30.30071307 146.20354602 -32.1153019 149.89461004 -33.06640625 154.23828125 C-34.07838251 158.31582575 -35.73778474 161.38042357 -38.0625 164.8125 C-38.46243164 165.41505615 -38.86236328 166.0176123 -39.27441406 166.63842773 C-64.83160962 204.52822295 -103.03835854 222.37594593 -147 231 C-154.8719142 232.48311427 -162.9725365 233.75202817 -171 233 C-171.33 232.67 -171.66 232.34 -172 232 C-174.28683857 231.87703532 -176.57725492 231.8200421 -178.8671875 231.7890625 C-180.31642003 231.76329652 -181.7656386 231.73673531 -183.21484375 231.70947266 C-183.97651855 231.69619934 -184.73819336 231.68292603 -185.52294922 231.66925049 C-198.89443714 231.41768497 -211.89027892 230.86080778 -225 228 C-226.0725 227.79632813 -227.145 227.59265625 -228.25 227.3828125 C-233.16033022 226.25287856 -233.16033022 226.25287856 -235 225 C-235.79702297 223.35034781 -236.58099504 221.69007849 -237.23583984 219.97900391 C-238.5253395 216.63948817 -240.1734268 213.49121144 -241.8125 210.3125 C-242.13025391 209.66216797 -242.44800781 209.01183594 -242.77539062 208.34179688 C-245.64685761 202.8075943 -249.19769895 200.16762544 -255 197.75 C-264.06862547 195.4979245 -274.06953305 196.69536337 -283 199 C-284.175625 197.4840625 -284.175625 197.4840625 -285.375 195.9375 C-289.25424296 191.3681994 -294.00689278 188.24650647 -299 185 C-295.25 183.875 -295.25 183.875 -293 185 C-271.78942403 186.71262586 -256.65618469 182.96049171 -238.17993164 172.77270508 C-224.30350577 165.17552486 -212.55710241 161.54877087 -197 165.9375 C-189.39698842 168.23027911 -182.20960799 171.39774789 -175.0390625 174.78881836 C-162.62268927 180.65224707 -149.00654774 184.77156669 -135.25 181 C-124.1660229 176.52183009 -119.38698307 167.32954564 -114.82958984 156.96240234 C-113.02976254 152.70489443 -111.41672218 148.39929518 -110 144 C-109.34 144.33 -108.68 144.66 -108 145 C-106.02 142.03 -106.02 142.03 -104 139 C-104.66 138.34 -105.32 137.68 -106 137 C-105.85538564 131.21542569 -103.01101827 125.83851491 -100 121 C-99.01 120.34 -98.02 119.68 -97 119 C-94.525 121.97 -94.525 121.97 -92 125 C-91.443125 124.05125 -90.88625 123.1025 -90.3125 122.125 C-87.93429698 118.91121213 -86.75965574 118.04434882 -83 117 C-83 116.34 -83 115.68 -83 115 C-84.65 114.34 -86.3 113.68 -88 113 C-88 111.68 -88 110.36 -88 109 C-82.55298267 106.5502108 -77.08987541 104.7122155 -71.31274414 103.23632812 C-58.90646231 100.18002491 -58.90646231 100.18002491 -49.5 91.95703125 C-46.3213679 86.30928314 -44.91211503 80.16678306 -43.44799805 73.90722656 C-39.48863588 57.06143097 -31.65033455 48.41772511 -17.23193359 39.42016602 C-11.03537859 35.49936661 -5.10473243 31.15709864 -1 25 C-0.63201307 22.28924456 -0.63201307 22.28924456 -0.5859375 19.23828125 C-0.54726563 18.12001953 -0.50859375 17.00175781 -0.46875 15.84960938 C-0.4378125 14.68236328 -0.406875 13.51511719 -0.375 12.3125 C-0.33632813 11.13365234 -0.29765625 9.95480469 -0.2578125 8.74023438 C-0.16345609 5.82698023 -0.07786839 2.91373393 0 0 Z " fill="#FBB810" transform="translate(437,188)"/>
<path d="M0 0 C1.86438196 0.75590272 3.74025818 1.48389692 5.625 2.1875 C14.54838349 5.84047573 22.3092084 11.15063228 28 19 C28.55945313 18.855625 29.11890625 18.71125 29.6953125 18.5625 C40.7321651 16.00734441 52.89499121 15.04889583 63 21 C65.62269945 23.36158999 67.26322823 25.94385742 69 29 C69.63164062 30.07894531 70.26328125 31.15789062 70.9140625 32.26953125 C76 41.29656375 76 41.29656375 76 46 C77.0003125 46.1340625 78.000625 46.268125 79.03125 46.40625 C84.15935212 47.13883602 89.20987434 48.23344511 94.28125 49.28125 C100.57263434 50.49723185 106.71848823 51.16518154 113.12109375 51.31640625 C113.86585464 51.33718735 114.61061554 51.35796844 115.37794495 51.37937927 C117.73104625 51.4441821 120.08424843 51.50343365 122.4375 51.5625 C124.04362976 51.6057513 125.64974973 51.64936757 127.25585938 51.69335938 C131.17047249 51.79979122 135.08518591 51.90124851 139 52 C139.33 53.32 139.66 54.64 140 56 C135.32677536 56.07559343 130.65392585 56.12926247 125.98022461 56.16479492 C124.39878117 56.17964641 122.81737705 56.19993305 121.23608398 56.22631836 C109.79010613 56.41216518 99.20333796 55.31386116 88 53 C85.81354036 52.59845982 83.62624648 52.20138191 81.4375 51.8125 C79.95824566 51.54214594 78.47903897 51.27152983 77 51 C76.87625 51.59425781 76.7525 52.18851562 76.625 52.80078125 C73.54604789 65.17432003 65.39351762 73.97376997 55 81 C41.93915311 88.74279135 26.58842754 94.92672125 11.2109375 91.3515625 C0.41184128 87.5343593 -3.46568413 78.84883278 -8.4609375 69.23046875 C-10 66 -10 66 -10 64 C-11.2375 63.938125 -12.475 63.87625 -13.75 63.8125 C-26.77283118 62.32242684 -40.81949909 54.22562614 -49 44 C-53.53190889 37.79560093 -54.00199758 31.49319926 -53 24 C-50.84216374 14.92790542 -48.29044828 5.93000927 -39.98046875 0.73828125 C-33.78022745 -2.54013947 -28.10288939 -3.24299636 -21.1875 -3.625 C-20.01477539 -3.70234375 -20.01477539 -3.70234375 -18.81835938 -3.78125 C-11.7267328 -4.184116 -6.09985791 -3.97773906 0 0 Z " fill="#973426" transform="translate(126,367)"/>
<path d="M0 0 C1.10579407 0.00054382 2.21158813 0.00108765 3.35089111 0.00164795 C52.26938625 0.11149421 114.01776652 5.46084025 151.1875 40.875 C157.69335224 47.66017326 162.03027115 54.35184359 162.4140625 63.90234375 C162.12809252 71.56853905 159.45436959 77.95613246 155.3125 84.375 C153.8275 85.365 153.8275 85.365 152.3125 86.375 C152.21453125 85.7459375 152.1165625 85.116875 152.015625 84.46875 C149.80604186 71.82079132 143.81525274 63.1387724 133.35327148 55.63842773 C129.12223628 52.69839917 125.13812871 50.19631313 120.3125 48.375 C117.87265502 46.37084162 117.34126045 45.46128136 116.3125 42.375 C115.9825 43.035 115.6525 43.695 115.3125 44.375 C110.36288247 42.93599052 105.4432016 41.45472594 100.5859375 39.7265625 C83.99170498 33.84215476 67.12505946 30.33280147 49.75 27.625 C49.01450928 27.50930664 48.27901855 27.39361328 47.52124023 27.27441406 C14.57279567 22.49010941 -22.91285793 22.65652114 -55.6875 28.375 C-57.39752197 28.67301514 -57.39752197 28.67301514 -59.14208984 28.97705078 C-87.41049508 34.11221488 -125.18973313 42.35105232 -144.29296875 66.2421875 C-148.3583607 72.45984577 -151.19152212 78.93533173 -151.6875 86.375 C-158.20431306 80.21044711 -161.25793453 74.61569868 -162 65.5625 C-161.66954453 56.05272595 -157.9215585 49.34093958 -151.6875 42.375 C-151.18605469 41.78074219 -150.68460938 41.18648437 -150.16796875 40.57421875 C-136.12813707 25.11263196 -113.53180079 17.79415453 -94.15136719 12.10058594 C-92.09756572 11.49576054 -90.05159304 10.86443031 -88.0078125 10.2265625 C-79.50965802 7.7271053 -70.84703542 6.24480051 -62.125 4.75 C-60.93712891 4.54358887 -59.74925781 4.33717773 -58.52539062 4.12451172 C-39.0894828 0.92761133 -19.67517136 -0.03678713 0 0 Z " fill="#EFA607" transform="translate(253.6875,94.625)"/>
<path d="M0 0 C0.66 0 1.32 0 2 0 C7.67591621 6.8747896 10.6740065 15.45638768 10.34375 24.33203125 C8.57017968 38.09735545 0.54539423 49.37508636 -10.2421875 57.73828125 C-12.78389113 59.56944473 -15.37031922 61.29776832 -18 63 C-18.83660156 63.55429687 -19.67320312 64.10859375 -20.53515625 64.6796875 C-74.13417307 98.15015268 -148.6830822 96.31093173 -208 83 C-203.296875 78.2109375 -203.296875 78.2109375 -200.625 76.3125 C-193.8091555 70.30806556 -189.90429583 62.47837913 -187 54 C-182.42572376 53.80940516 -178.77040656 54.23297319 -174.31274414 55.42773438 C-163.23061866 58.16989653 -152.028443 58.40146432 -140.6875 58.625 C-139.06052858 58.66329313 -137.43357498 58.70235087 -135.80664062 58.7421875 C-131.87124286 58.83691647 -127.9357512 58.92138085 -124 59 C-124 58.34 -124 57.68 -124 57 C-123.22213135 56.91548584 -122.4442627 56.83097168 -121.64282227 56.74389648 C-103.52955244 54.71388085 -86.387847 51.68863536 -69 46 C-68.12778809 45.71753418 -67.25557617 45.43506836 -66.35693359 45.14404297 C-42.00112938 37.10996142 -16.65827441 23.06815328 -1.40234375 1.76953125 C-0.70818359 0.89361328 -0.70818359 0.89361328 0 0 Z " fill="#C6C3C3" transform="translate(390,364)"/>
<path d="M0 0 C1.1996608 1.7994912 2.37888194 3.6132419 3.515625 5.453125 C23.00099236 36.87547416 61.41244144 50.58110452 95.89599609 58.68017578 C101.24656042 59.88117239 106.61271743 60.97717866 112 62 C111.01 62.495 111.01 62.495 110 63 C109.5359375 63.9590625 109.5359375 63.9590625 109.0625 64.9375 C108 67 108 67 105 69 C101.40522121 69.25391979 97.84980824 69.36630931 94.24804688 69.390625 C90.7027803 69.50170385 88.59272985 69.60452602 85.59375 71.60546875 C83.57898118 74.63256014 82.80704205 77.41039652 81.9375 80.9375 C80.33346539 87.37429126 78.83124917 92.37331077 73 96 C70.72924805 96.24536133 70.72924805 96.24536133 68.26171875 96.08203125 C67.35873047 96.04529297 66.45574219 96.00855469 65.52539062 95.97070312 C63.64445429 95.86584707 61.76415516 95.74879886 59.88476562 95.61914062 C55.02927212 95.44314193 51.86025628 95.54186522 48 98.68359375 C45.41459386 101.2896862 43.69303082 103.82176734 42.3125 107.25 C41.91804688 108.19617188 41.52359375 109.14234375 41.1171875 110.1171875 C40.38915324 111.99582136 39.66499923 113.87596499 38.9453125 115.7578125 C35.69146049 124.20773826 32.63686225 128.01984721 24.4375 132.08203125 C22 133 22 133 18 133 C17.67 133.66 17.34 134.32 17 135 C5.18888961 98.88235034 -2.08062765 64.40021072 -2.25 26.1875 C-2.25535767 25.50936249 -2.26071533 24.83122498 -2.26623535 24.13253784 C-2.31600949 15.86311816 -1.84847354 8.07286081 0 0 Z " fill="#FAB810" transform="translate(72,173)"/>
<path d="M0 0 C5.05260288 0.21849094 7.86029047 3.15816758 11.3125 6.5 C11.88572998 7.0460791 12.45895996 7.5921582 13.04956055 8.15478516 C14.7141857 9.7558105 16.36013633 11.37366312 18 13 C18.7734375 13.76054687 19.546875 14.52109375 20.34375 15.3046875 C30.74727377 26.24490099 37.9584206 40.75635233 38.5 55.9375 C37.85328319 74.75487288 28.78936188 89.06105494 16 102 C15.36578125 102.70640625 14.7315625 103.4128125 14.078125 104.140625 C7.77684818 110.99953693 -0.18904161 116.01806754 -8 121 C-8.61987793 121.39574219 -9.23975586 121.79148437 -9.87841797 122.19921875 C-15.11031632 125.38052994 -19.02872216 125.94232726 -25 125 C-30.87383829 122.9776727 -35.24885617 118.50228766 -38 113 C-38.40422338 107.74509601 -37.98528679 104.38463998 -35 100 C-32.47978423 97.7810514 -29.76698595 95.89708096 -27 94 C-25.53459104 92.96831103 -24.07597564 91.92689127 -22.625 90.875 C-21.65433594 90.19050781 -21.65433594 90.19050781 -20.6640625 89.4921875 C-18.74489203 87.77124121 -17.9002886 86.40986343 -17 84 C-17 82.68 -17 81.36 -17 80 C-18.32 82.31 -19.64 84.62 -21 87 C-23 84 -23 84 -24.25 81.5 C-26.41161686 78.41197591 -28.57117757 77.44772503 -32 76 C-31.236875 75.401875 -30.47375 74.80375 -29.6875 74.1875 C-25.36789787 70.78488452 -25.36789787 70.78488452 -23 66 C-23.57492187 65.73058594 -24.14984375 65.46117187 -24.7421875 65.18359375 C-27.04733459 63.97518619 -29.0413013 62.61933192 -31.125 61.0625 C-31.80820312 60.55847656 -32.49140625 60.05445313 -33.1953125 59.53515625 C-36.21695422 56.96479868 -36.97389634 55.1740244 -37.5625 51.25 C-37.42120167 47.88341367 -36.72540494 46.03335914 -34.5 43.5 C-30.20294523 39.6273457 -25.00730535 37.28817962 -19.77539062 34.92773438 C-14.74956027 32.61517651 -10.81889443 30.03576042 -7.890625 25.1484375 C-6.46056853 21.18962265 -5.82243929 17.64851656 -5.5625 13.4375 C-5.21248798 8.08306083 -3.91198221 3.91198221 0 0 Z " fill="#F3ECEC" transform="translate(451,330)"/>
<path d="M0 0 C11.05639433 3.96436481 21.08180227 12.93138943 26.4375 23.375 C28.541242 28.25568143 30.26080233 32.67979625 29 38 C17.63968466 55.27436186 -11.31322416 63.40280678 -30 69 C-30.76521973 69.23315918 -31.53043945 69.46631836 -32.31884766 69.70654297 C-49.40297073 74.79328362 -67.34164103 76.88121018 -85 79 C-85.76907181 79.09260101 -86.53814362 79.18520203 -87.33052063 79.28060913 C-93.57741158 79.9733692 -99.74551904 80.14604994 -106.02734375 80.1328125 C-107.05573868 80.13376923 -108.08413361 80.13472595 -109.14369202 80.13571167 C-111.31104595 80.13638838 -113.47840198 80.13456982 -115.64575195 80.13037109 C-118.89734678 80.12506552 -122.14880031 80.13030779 -125.40039062 80.13671875 C-143.41627826 80.1433309 -161.1530209 79.53550186 -179 77 C-179 76.34 -179 75.68 -179 75 C-175.16981552 72.38731402 -171.0555301 70.24184701 -167 68 C-165.69482422 67.22269531 -165.69482422 67.22269531 -164.36328125 66.4296875 C-157.3007959 62.44922072 -150.88194925 61.77566817 -142.97729492 63.75805664 C-138.77479968 65.11891885 -134.6358029 66.62693559 -130.4921875 68.15625 C-121.96897969 71.12453133 -113.37181616 72.66037954 -104.5625 69.9375 C-99.42449064 66.05266365 -96.08698088 61.14642419 -92.5625 55.8125 C-89.37192432 51.24559756 -87.2702614 48.93242918 -82 47 C-76.06676129 46.20075231 -70.80424444 46.92928719 -65.0625 48.5 C-58.35244478 50.33478072 -50.74586526 51.83799988 -44.27734375 48.6640625 C-41.77556131 47.03660238 -41.77556131 47.03660238 -40 44 C-39.71291339 40.46411055 -39.58570962 36.96845006 -39.52148438 33.42382812 C-39.34826579 28.61173145 -38.7405581 25.12644398 -36 21 C-32.14390958 17.91690467 -26.73956266 18.67537309 -22.01953125 18.69726562 C-16.19212045 18.5271623 -13.91088875 17.04336362 -10 13 C-8.46697727 10.75286122 -8.46697727 10.75286122 -7.4375 8.4375 C-5.50214397 4.66732592 -3.60625881 2.36982722 0 0 Z " fill="#F26636" transform="translate(377,144)"/>
<path d="M0 0 C19.52005061 2.92800759 34.44206127 11.84114982 46.4375 27.5 C53.70963791 38.08315289 57.07478582 48.54154866 57.65625 61.3046875 C57.82640625 62.63886719 57.82640625 62.63886719 58 64 C58.66 64.33 59.32 64.66 60 65 C59.52294059 89.93719669 47.94217686 111.61948514 30.29394531 128.78808594 C25.58116358 133.25047319 22.25363578 135.28211743 16 137 C13.45165989 138.35559005 11.08425755 139.95724825 8.6875 141.5625 C2.68073082 145.44502006 -3.43079231 148.95626378 -9.8125 152.1875 C-10.96842651 152.78510132 -10.96842651 152.78510132 -12.14770508 153.39477539 C-17.63439372 156.12186876 -17.63439372 156.12186876 -21 155 C-20.63032104 153.99755249 -20.63032104 153.99755249 -20.25317383 152.97485352 C-15.79768531 140.85405313 -11.42989028 128.77513278 -7.97265625 116.328125 C-7.65167969 115.22984375 -7.33070313 114.1315625 -7 113 C-6.7628125 112.10410156 -6.525625 111.20820313 -6.28125 110.28515625 C-4.4416561 107.00417323 -1.68386373 105.8166307 1.5625 104.1875 C11.76441404 98.68191231 18.71837625 92.4786061 24 82 C24.3403125 81.37738281 24.680625 80.75476563 25.03125 80.11328125 C28.41810394 72.88485688 28.36573948 63.505773 26.0859375 55.984375 C22.35849201 47.95233117 17.32438203 44.06687759 9 41 C6.66973596 40.32268296 4.3367701 39.65451844 2 39 C1.97494385 38.30438965 1.9498877 37.6087793 1.92407227 36.89208984 C1.80754026 33.71956545 1.68507432 30.54729645 1.5625 27.375 C1.52318359 26.28058594 1.48386719 25.18617188 1.44335938 24.05859375 C1.40146484 22.99511719 1.35957031 21.93164062 1.31640625 20.8359375 C1.27974854 19.86188965 1.24309082 18.8878418 1.20532227 17.88427734 C0.99103803 14.87410613 0.51704132 11.97143023 0 9 C-0.0620775 7.37605252 -0.08712041 5.74994703 -0.0625 4.125 C-0.05347656 3.34382812 -0.04445313 2.56265625 -0.03515625 1.7578125 C-0.02355469 1.17773438 -0.01195312 0.59765625 0 0 Z " fill="#FDCB3A" transform="translate(439,163)"/>
<path d="M0 0 C1.47942269 0.09763217 2.95638949 0.23616161 4.4296875 0.40234375 C5.79818848 0.54325439 5.79818848 0.54325439 7.19433594 0.68701172 C10.23765816 1.0308702 13.26986931 1.42792083 16.3046875 1.83984375 C17.87089844 2.0419043 17.87089844 2.0419043 19.46875 2.24804688 C27.1647101 3.26985505 27.1647101 3.26985505 29.4296875 4.40234375 C29.99855007 18.60283892 29.99855007 18.60283892 26.4296875 23.40234375 C20.83142389 28.4544353 20.83142389 28.4544353 17.1171875 28.31640625 C16.2303125 28.22101563 15.3434375 28.125625 14.4296875 28.02734375 C13.5428125 27.93710937 12.6559375 27.846875 11.7421875 27.75390625 C9.4296875 27.40234375 9.4296875 27.40234375 7.4296875 26.40234375 C4.73955411 26.21529971 2.13282573 26.31652984 -0.5703125 26.40234375 C-2.8106148 28.64264605 -1.92397906 34.696125 -2 37.88085938 C-2.23705174 43.57503978 -3.35392906 47.84497824 -7.1953125 52.27734375 C-12.08237704 54.59226906 -17.48370082 53.8164218 -22.5703125 52.40234375 C-26.9311633 51.20985561 -31.07788303 50.61767757 -35.5703125 51.40234375 C-42.90064153 56.06709859 -45.10659489 66.83886294 -47.5703125 74.71484375 C-50.06077134 82.3356478 -53.34365539 87.4203082 -60.5703125 91.40234375 C-66.34119083 94.15038105 -72.32519825 93.81973474 -78.5703125 93.40234375 C-79.47910156 93.36496094 -80.38789062 93.32757813 -81.32421875 93.2890625 C-84.42741799 92.82002933 -86.04766752 92.30843866 -88.5703125 90.40234375 C-92.45524879 84.62373644 -95.5703125 77.35179853 -95.5703125 70.40234375 C-94.46623047 70.05623047 -94.46623047 70.05623047 -93.33984375 69.703125 C-85.33509454 67.02782573 -80.75752804 64.20536168 -76.58984375 56.6171875 C-75.29013123 53.7936741 -74.29733442 50.89378988 -73.2578125 47.96484375 C-70.95681242 41.76929385 -67.73852956 35.48645228 -61.5703125 32.40234375 C-60.03293233 32.36527012 -58.49382646 32.38898552 -56.95703125 32.4453125 C-56.03857422 32.46658203 -55.12011719 32.48785156 -54.17382812 32.50976562 C-52.24116861 32.56283933 -50.30879639 32.62780439 -48.37695312 32.70507812 C-44.04715706 32.78677239 -41.33927835 32.83335645 -37.50390625 30.68359375 C-35.4761835 28.29129055 -34.67602084 26.73997628 -33.9453125 23.71484375 C-33.71457031 22.8434375 -33.48382813 21.97203125 -33.24609375 21.07421875 C-33.02308594 20.1925 -32.80007812 19.31078125 -32.5703125 18.40234375 C-32.11178757 16.75064071 -31.63372383 15.10418993 -31.1328125 13.46484375 C-30.92785156 12.75457031 -30.72289062 12.04429687 -30.51171875 11.3125 C-29.2099786 8.67120982 -28.20090917 7.77685165 -25.5703125 6.40234375 C-21.96731154 6.0946396 -18.46780793 6.01359272 -14.85742188 6.05078125 C-9.88885434 5.97397918 -9.88885434 5.97397918 -6.03515625 2.86328125 C-3.5703125 0.40234375 -3.5703125 0.40234375 0 0 Z " fill="#FECC3A" transform="translate(185.5703125,235.59765625)"/>
<path d="M0 0 C1.86438196 0.75590272 3.74025818 1.48389692 5.625 2.1875 C14.54838349 5.84047573 22.3092084 11.15063228 28 19 C28.55945313 18.855625 29.11890625 18.71125 29.6953125 18.5625 C41.01832429 15.94109534 52.47922288 15.4323675 63 21 C64.80078125 22.63671875 64.80078125 22.63671875 66 24 C65.67 24.66 65.34 25.32 65 26 C64.0821875 25.96519531 63.164375 25.93039062 62.21875 25.89453125 C50.22210499 25.62989937 44.37000451 27.01371312 35.58203125 35.26171875 C32.27235116 38.77168206 29.42175031 42.52915678 26.54174805 46.3918457 C20.28787494 54.71923506 13.81116183 58.72961272 4 62 C1.98093192 62.09416778 -0.04124313 62.12991192 -2.0625 62.125 C-3.12597656 62.12757813 -4.18945312 62.13015625 -5.28515625 62.1328125 C-8 62 -8 62 -10 61 C-10.125 53.375 -10.125 53.375 -9 50 C-10.03898437 49.63648438 -11.07796875 49.27296875 -12.1484375 48.8984375 C-26.36634382 43.81939436 -39.87441059 37.89462977 -47.1875 23.91796875 C-48 22 -48 22 -48 20 C-48.99 20.33 -49.98 20.66 -51 21 C-49.87788803 13.52909663 -48.36389125 8.36389125 -42.875 2.875 C-31.42840053 -4.59017357 -11.96596522 -7.80304852 0 0 Z " fill="#A5402E" transform="translate(126,367)"/>
<path d="M0 0 C14.16407552 11.50831136 25.34568552 26.85268308 27.375 45.43359375 C27.96229014 61.8960706 21.67382599 77.29094028 10.5625 89.3125 C8.73133809 91.23304787 6.87001177 93.11653491 5 95 C4.23816406 95.79921875 3.47632813 96.5984375 2.69140625 97.421875 C-0.68210586 100.91655295 -3.74543469 103.59492786 -8 106 C-9.63171123 104.59106853 -11.25513945 103.17254042 -12.875 101.75 C-13.77992188 100.96109375 -14.68484375 100.1721875 -15.6171875 99.359375 C-18.87673234 96.13189126 -19.85111897 94.14851079 -20.4375 89.625 C-19.90261579 85.19310225 -18.23100639 82.89444323 -15 80 C-13.03081154 78.62156808 -11.03335209 77.28189588 -9 76 C-6.99515224 74.83115894 -6.99515224 74.83115894 -6 73 C-5.61877059 69.75955004 -5.5145654 68.78931608 -7 66 C-10.43705849 62.96698444 -14.16003971 60.49111348 -18 58 C-19 57 -19 57 -19.0625 53.4375 C-19.041875 52.303125 -19.02125 51.16875 -19 50 C-15.23955279 48.2764617 -11.80505872 46.89603985 -7.75 46.0625 C-3.70861547 44.91744105 -2.99220573 44.50948935 -1 41 C-0.48613251 35.67446419 -1.95044342 30.77260097 -4.0625 25.9375 C-6.09674032 21.11087076 -7.1432005 17.19410663 -6 12 C-4.26103734 7.8435777 -2.22570093 3.91484895 0 0 Z " fill="#D6D4D4" transform="translate(462,337)"/>
<path d="M0 0 C1.12148437 -0.02578125 2.24296875 -0.0515625 3.3984375 -0.078125 C7.03329004 0.29152102 8.89150312 0.81339979 11.625 3.25 C12.75328118 10.04789413 9.02494583 15.61248298 5.625 21.25 C-3.16353182 33.41873636 -17.65120636 42.24472556 -32.18359375 45.77734375 C-36.3188641 46.38978893 -40.38559314 46.6099447 -44.5625 46.6875 C-45.31096191 46.70989746 -46.05942383 46.73229492 -46.83056641 46.75537109 C-51.83085475 46.73440321 -55.29116253 45.67082114 -59.6418457 43.20727539 C-61.52329392 42.09953366 -61.52329392 42.09953366 -64.375 41.25 C-65.5625 38.6875 -65.5625 38.6875 -66.375 36.25 C-65.63636719 36.28480469 -64.89773437 36.31960938 -64.13671875 36.35546875 C-50.71212764 36.71368529 -40.77037244 33.42444078 -30.9375 24.1875 C-27.79082089 20.92427722 -25.14072951 17.31613644 -22.4375 13.6875 C-16.19737523 5.32663374 -10.73238101 0.14735535 0 0 Z " fill="#BB583B" transform="translate(183.375,397.75)"/>
<path d="M0 0 C1.80078125 1.63671875 1.80078125 1.63671875 3 3 C2.67 3.66 2.34 4.32 2 5 C1.0821875 4.96519531 0.164375 4.93039062 -0.78125 4.89453125 C-12.77789501 4.62989937 -18.62999549 6.01371312 -27.41796875 14.26171875 C-30.72764884 17.77168206 -33.57824969 21.52915678 -36.45825195 25.3918457 C-42.71212506 33.71923506 -49.18883817 37.72961272 -59 41 C-61.01906808 41.09416778 -63.04124313 41.12991192 -65.0625 41.125 C-66.12597656 41.12757813 -67.18945312 41.13015625 -68.28515625 41.1328125 C-71 41 -71 41 -73 40 C-73.77243311 31.65772245 -71.01060241 26.15233511 -66.15625 19.45703125 C-60.1578577 12.23881663 -53.03293046 7.63473525 -45 3 C-44.08605469 2.47148437 -43.17210937 1.94296875 -42.23046875 1.3984375 C-29.45317641 -5.48319082 -13.07614579 -6.91994264 0 0 Z " fill="#BB583B" transform="translate(189,388)"/>
<path d="M0 0 C1.05672415 1.80123435 2.04407699 3.64330339 3 5.5 C10.18596054 18.06803798 22.32439488 23.77324243 35.8125 27.875 C37.194375 28.24625 38.57625 28.6175 40 29 C39.34 32.96 38.68 36.92 38 41 C46.87110918 41.46017281 54.12760618 41.37201485 62 37 C62.66128906 36.63390625 63.32257813 36.2678125 64.00390625 35.890625 C70.07318864 31.9180038 74.05281418 26.04142929 78.39453125 20.35546875 C83.79484016 13.31929273 89.89497312 6.70619593 99 5 C101.32963775 4.83241993 103.66481562 4.73450053 106 4.6875 C107.216875 4.65011719 108.43375 4.61273438 109.6875 4.57421875 C113 5 113 5 115.359375 6.84765625 C117.11099372 9.14561319 118.08903803 11.26711408 119 14 C114.25 13.125 114.25 13.125 112 12 C104.87552075 11.28448558 98.33858532 11.15705331 92.18359375 15.12109375 C87.48151769 19.16706618 83.8036075 24.13315446 80 29 C71.81835227 38.89370279 64.12188018 45.8809386 51 48 C49.29416232 48.11147571 47.58442629 48.17443099 45.875 48.1875 C45.02679688 48.20167969 44.17859375 48.21585937 43.3046875 48.23046875 C41 48 41 48 38 46 C38 45.34 38 44.68 38 44 C36.7625 43.938125 35.525 43.87625 34.25 43.8125 C21.22716882 42.32242684 7.18050091 34.22562614 -1 24 C-5.54143371 17.78256099 -5.67895596 11.51303727 -5 4 C-4.67 3.01 -4.34 2.02 -4 1 C-2 0 -2 0 0 0 Z " fill="#973325" transform="translate(78,387)"/>
<path d="M0 0 C7.41295082 0.05395418 13.54717199 0.66639034 19.5 5.3125 C22.03934046 10.61199314 21.78064207 16.78307378 19.9375 22.3125 C20.576875 23.17875 21.21625 24.045 21.875 24.9375 C24.52371529 29.27176138 24.77505533 32.35624473 23.9375 37.3125 C22.41665155 41.90204265 19.72730672 45.43473435 15.32421875 47.66015625 C7.34058116 49.84226341 -1.31625343 48.91414342 -9.0625 46.3125 C-10.79604743 44.57895257 -10.19271438 42.22999797 -10.1953125 39.87109375 C-10.19740723 38.73663818 -10.19950195 37.60218262 -10.20166016 36.43334961 C-10.1969873 35.21784424 -10.19231445 34.00233887 -10.1875 32.75 C-10.18411621 31.52611572 -10.18073242 30.30223145 -10.17724609 29.04125977 C-10.01250773 0.03006759 -10.01250773 0.03006759 0 0 Z M-0.0625 9.3125 C-0.0625 12.2825 -0.0625 15.2525 -0.0625 18.3125 C1.360625 18.374375 2.78375 18.43625 4.25 18.5 C5.05050781 18.53480469 5.85101563 18.56960937 6.67578125 18.60546875 C9.00522528 18.49170516 9.00522528 18.49170516 10.7421875 16.96484375 C12.21879719 15.29615419 12.21879719 15.29615419 11.75 12.6875 C11.19105766 10.14697997 11.19105766 10.14697997 8.9375 9.3125 C5.93275503 9.17690682 2.94681153 9.26950984 -0.0625 9.3125 Z M-0.0625 26.3125 C-0.9348412 29.30730917 -1.17079766 31.94825911 -1.125 35.0625 C-1.11597656 35.86171875 -1.10695313 36.6609375 -1.09765625 37.484375 C-1.08605469 38.08765625 -1.07445312 38.6909375 -1.0625 39.3125 C1.04054477 39.4205023 3.14516909 39.49808987 5.25 39.5625 C6.42175781 39.60890625 7.59351563 39.6553125 8.80078125 39.703125 C11.99291327 39.61981061 11.99291327 39.61981061 13.86328125 37.4921875 C15.38594112 34.4025722 14.9241755 32.55443379 13.9375 29.3125 C10.65258627 27.12255752 9.10654361 26.95972661 5.25 26.6875 C4.25613281 26.61273438 3.26226562 26.53796875 2.23828125 26.4609375 C1.09939453 26.38746094 1.09939453 26.38746094 -0.0625 26.3125 Z " fill="#1A37AB" transform="translate(278.0625,12.6875)"/>
<path d="M0 0 C20.86053412 0.86053412 20.86053412 0.86053412 28 8 C30.71434941 12.48874743 30.643985 16.89524088 30 22 C28.4516068 26.29399764 26.02213338 29.72079108 22 32 C21.34 32 20.68 32 20 32 C20.3609375 32.72445312 20.721875 33.44890625 21.09375 34.1953125 C21.5578125 35.16210938 22.021875 36.12890625 22.5 37.125 C22.9640625 38.07632813 23.428125 39.02765625 23.90625 40.0078125 C25.07748116 43.21196631 25.20076124 45.61717313 25 49 C23.35 49.66 21.7 50.32 20 51 C14.76745438 46.6644622 12.38246635 41.29579406 10 35 C10 34.34 10 33.68 10 33 C8.02 33 6.04 33 4 33 C3.86722656 33.92683594 3.73445313 34.85367188 3.59765625 35.80859375 C3.33275391 37.60490234 3.33275391 37.60490234 3.0625 39.4375 C2.88847656 40.63246094 2.71445312 41.82742187 2.53515625 43.05859375 C2 46 2 46 1 47 C-0.99958364 47.04080783 -3.00045254 47.04254356 -5 47 C-7.37922072 42.46473316 -6.99258943 38.51665511 -6.42578125 33.59375 C-6.3412822 32.79142944 -6.25678314 31.98910889 -6.16972351 31.16247559 C-5.98820565 29.47076322 -5.80039335 27.77971586 -5.60668945 26.08935547 C-5.31368437 23.51042444 -5.04711449 20.92970803 -4.78320312 18.34765625 C-4.60314509 16.70034708 -4.42155527 15.05320447 -4.23828125 13.40625 C-4.15999588 12.63841187 -4.08171051 11.87057373 -4.00105286 11.07946777 C-3.47974507 6.70511729 -2.58460624 3.58748846 0 0 Z M7 9 C6.66048381 10.56116819 6.32867456 12.12401338 6 13.6875 C5.814375 14.55761719 5.62875 15.42773438 5.4375 16.32421875 C5.01027953 18.93712964 4.92383799 21.35813038 5 24 C11.72454615 25.30528174 11.72454615 25.30528174 18.0625 23.375 C20.24011407 20.70566663 21.0842226 19.45312648 21 16 C19.80603976 13.10665555 19.80603976 13.10665555 17 11 C13.70376691 9.9992657 10.41325405 9.43642752 7 9 Z " fill="#1A37AB" transform="translate(312,16)"/>
<path d="M0 0 C6.61236842 0.42660441 12.96731729 1.49638422 19.4375 2.875 C20.23075684 3.03645508 21.02401367 3.19791016 21.84130859 3.36425781 C22.96980225 3.61320801 22.96980225 3.61320801 24.12109375 3.8671875 C24.7958374 4.01269043 25.47058105 4.15819336 26.16577148 4.30810547 C28.40418536 5.1524639 29.53360134 6.11878953 31 8 C30.57894737 12.42105263 30.57894737 12.42105263 29 14 C21.09557682 13.94067975 13.57302805 12.10141616 6 10 C6 13.3 6 16.6 6 20 C7.07121094 20.27714844 8.14242188 20.55429687 9.24609375 20.83984375 C10.64327627 21.20554924 12.04040915 21.57144446 13.4375 21.9375 C14.14455078 22.11990234 14.85160156 22.30230469 15.58007812 22.49023438 C20.88671875 23.88671875 20.88671875 23.88671875 22 25 C22.1875 27.4375 22.1875 27.4375 22 30 C20 32 20 32 17.86328125 32.01171875 C17.02152344 31.90472656 16.17976563 31.79773438 15.3125 31.6875 C14.42433594 31.57921875 13.53617187 31.4709375 12.62109375 31.359375 C11.75613281 31.24078125 10.89117187 31.1221875 10 31 C9.26910156 30.90203125 8.53820312 30.8040625 7.78515625 30.703125 C6.188342 30.48107312 4.59383104 30.24253951 3 30 C2.67 32.97 2.34 35.94 2 39 C3.80597656 39.39832031 3.80597656 39.39832031 5.6484375 39.8046875 C7.2240451 40.16107493 8.79956127 40.51786678 10.375 40.875 C11.1690625 41.04902344 11.963125 41.22304688 12.78125 41.40234375 C13.54179687 41.57636719 14.30234375 41.75039063 15.0859375 41.9296875 C15.7876709 42.08679199 16.4894043 42.24389648 17.21240234 42.40576172 C19 43 19 43 21 45 C21.25 47.5 21.25 47.5 21 50 C20.34 50.66 19.68 51.32 19 52 C13.10726979 51.57723238 7.38538625 50.33889531 1.625 49.0625 C0.41650391 48.80823242 0.41650391 48.80823242 -0.81640625 48.54882812 C-6.76045583 47.23954417 -6.76045583 47.23954417 -9 45 C-9.41308058 37.4785121 -8.00209755 30.3597858 -6.60131836 22.99926758 C-6.1869527 20.80960788 -5.79114369 18.6171148 -5.39648438 16.42382812 C-5.1339257 15.0180208 -4.87029087 13.61241395 -4.60546875 12.20703125 C-4.36981201 10.9435083 -4.13415527 9.67998535 -3.89135742 8.37817383 C-3.02528175 5.09581582 -1.90383637 2.78784342 0 0 Z " fill="#1A37AB" transform="translate(351,22)"/>
<path d="M0 0 C3.375 -0.1875 3.375 -0.1875 7 0 C9 3 9 3 8.8125 5.625 C8.14465072 8.39914317 7.3608548 11.01288795 6.44921875 13.7109375 C6.04255981 14.9182251 6.04255981 14.9182251 5.62768555 16.14990234 C5.42054932 16.76043457 5.21341309 17.3709668 5 18 C5.57443848 17.75765625 6.14887695 17.5153125 6.74072266 17.265625 C9.3643499 16.16605928 11.99447076 15.08294389 14.625 14 C15.98044922 13.42765625 15.98044922 13.42765625 17.36328125 12.84375 C26.12587091 9.26196153 26.12587091 9.26196153 31 10 C33 12 33 12 33.4375 14.4375 C33 17 33 17 31.0546875 18.4296875 C27.03936942 20.493828 22.90712316 22.09223599 18.6875 23.6875 C17.85154297 24.00783203 17.01558594 24.32816406 16.15429688 24.65820312 C14.10442804 25.44301005 12.05301458 26.22346787 10 27 C11.92609114 32.87323873 13.98255487 38.66317427 16.23046875 44.421875 C17.03977066 47.1332418 17.29165209 49.18866506 17 52 C15 54 15 54 12.5625 54.4375 C10 54 10 54 8.56640625 52.01953125 C6.57879221 48.18804584 4.97000665 44.25779214 3.375 40.25 C1.73387297 35.26506179 1.73387297 35.26506179 -1 31 C-1.30292969 31.84304687 -1.60585938 32.68609375 -1.91796875 33.5546875 C-2.33691406 34.65039062 -2.75585938 35.74609375 -3.1875 36.875 C-3.59355469 37.96554688 -3.99960937 39.05609375 -4.41796875 40.1796875 C-6 43 -6 43 -8.67578125 44.3828125 C-9.44277344 44.58648437 -10.20976562 44.79015625 -11 45 C-12.32 43.68 -13.64 42.36 -15 41 C-12.83194185 33.14973618 -10.04366045 25.56315008 -7.12890625 17.96533203 C-6.36615921 15.97695325 -5.60845379 13.9867081 -4.8515625 11.99609375 C-1.16946396 2.33892792 -1.16946396 2.33892792 0 0 Z " fill="#1A37AB" transform="translate(435,47)"/>
<path d="M0 0 C2.375 0.375 2.375 0.375 4.375 2.375 C4.24675196 8.09486275 1.38561979 11.9760695 -1.6875 16.5625 C-2.62195366 17.96864241 -3.55062242 19.37865134 -4.47265625 20.79296875 C-4.88523682 21.40938232 -5.29781738 22.0257959 -5.72290039 22.66088867 C-6.85786023 24.49463294 -6.85786023 24.49463294 -6.625 27.375 C-5.08209032 28.67946454 -5.08209032 28.67946454 -3.01171875 29.75 C-2.25826172 30.17796875 -1.50480469 30.6059375 -0.72851562 31.046875 C0.06876953 31.48515625 0.86605469 31.9234375 1.6875 32.375 C3.24846625 33.2457605 4.80715332 34.12062218 6.36328125 35 C7.05977783 35.38414063 7.75627441 35.76828125 8.47387695 36.1640625 C10.43025571 37.41019562 11.90983669 38.57493394 13.375 40.375 C12.95394737 44.79605263 12.95394737 44.79605263 11.375 46.375 C5.09842702 47.40459557 1.03258196 44.14176373 -4 40.875 C-4.83144531 40.35035156 -5.66289063 39.82570312 -6.51953125 39.28515625 C-8.56261083 37.99355422 -10.59700562 36.69011207 -12.625 35.375 C-12.48352539 35.97900635 -12.34205078 36.5830127 -12.19628906 37.20532227 C-12.01291992 38.00510498 -11.82955078 38.8048877 -11.640625 39.62890625 C-11.45790039 40.4185376 -11.27517578 41.20816895 -11.08691406 42.02172852 C-10.4622277 45.2042612 -10.36148157 48.14689924 -10.625 51.375 C-11.285 52.035 -11.945 52.695 -12.625 53.375 C-15.75 53 -15.75 53 -18.625 52.375 C-31.19434229 15.26159266 -31.19434229 15.26159266 -30.625 9.375 C-28.625 7.375 -28.625 7.375 -25.5 7.25 C-24.55125 7.29125 -23.6025 7.3325 -22.625 7.375 C-20.86960125 10.71861667 -19.32492238 14.05420208 -18.01953125 17.59375 C-17.7563208 18.30466797 -17.49311035 19.01558594 -17.22192383 19.74804688 C-17.02493896 20.28494141 -16.8279541 20.82183594 -16.625 21.375 C-16.20202637 20.6339502 -16.20202637 20.6339502 -15.77050781 19.87792969 C-14.47856811 17.62311929 -13.1769018 15.37407192 -11.875 13.125 C-11.4315625 12.34769531 -10.988125 11.57039063 -10.53125 10.76953125 C-4.6588507 0.6655501 -4.6588507 0.6655501 0 0 Z " fill="#1A37AB" transform="translate(132.625,26.625)"/>
<path d="M0 0 C1.86438196 0.75590272 3.74025818 1.48389692 5.625 2.1875 C12.94922741 5.16976586 20.53473013 9.3020952 25 16 C22.21592253 19.38372493 20.82063682 20.87868847 16.40625 21.53125 C13.80208333 21.51041667 11.19791667 21.48958333 8.59375 21.46875 C4.17936318 22.12131153 2.78407747 23.61627507 0 27 C-0.92941406 26.19175781 -1.85882813 25.38351562 -2.81640625 24.55078125 C-4.06496855 23.4711973 -5.31367415 22.39177907 -6.5625 21.3125 C-7.17158203 20.78205078 -7.78066406 20.25160156 -8.40820312 19.70507812 C-16.76674489 12.49638867 -22.97048055 7.70313203 -34.5 7.75 C-35.7684375 7.74484375 -37.036875 7.7396875 -38.34375 7.734375 C-41.90390317 7.99301861 -44.68745385 8.71178761 -48 10 C-44.60178173 3.56127064 -39.8961796 0.37463045 -33.21875 -2.1796875 C-22.86660545 -4.81797677 -9.15739009 -5.97156667 0 0 Z " fill="#BB593C" transform="translate(126,367)"/>
<path d="M0 0 C1 1 1 1 1.0625 3.5625 C1.041875 4.366875 1.02125 5.17125 1 6 C-6.30969648 9.49594179 -13.84015151 11.42946571 -22 11 C-21.67 12.0725 -21.34 13.145 -21 14.25 C-20 18 -20 18 -20 22 C-18.69675781 21.65775391 -18.69675781 21.65775391 -17.3671875 21.30859375 C-16.21476563 21.02113281 -15.06234375 20.73367187 -13.875 20.4375 C-12.16957031 20.00244141 -12.16957031 20.00244141 -10.4296875 19.55859375 C-6.93510616 18.98943073 -4.42796653 19.21333899 -1 20 C-0.3125 22.3125 -0.3125 22.3125 0 25 C-2.19022677 27.96881236 -4.32633887 28.55650706 -7.875 29.1875 C-8.71804687 29.34605469 -9.56109375 29.50460938 -10.4296875 29.66796875 C-12.98501452 29.99806419 -15.42664901 30.05995262 -18 30 C-17.67 31.0725 -17.34 32.145 -17 33.25 C-16 37 -16 37 -16 41 C-15.23816406 40.7834375 -14.47632813 40.566875 -13.69140625 40.34375 C-7.2691105 38.61189497 -1.65404698 37.46338331 5 38 C5.66 38.66 6.32 39.32 7 40 C6.875 42.5 6.875 42.5 6 45 C2.48123915 47.36334684 -1.65337136 47.87877396 -5.75 48.625 C-6.76707031 48.82609375 -6.76707031 48.82609375 -7.8046875 49.03125 C-12.60520813 49.92564358 -17.11584441 50.28543766 -22 50 C-24.77138734 47.22861266 -25.11243555 44.10351043 -25.9453125 40.39453125 C-26.12005096 39.63710129 -26.29478943 38.87967133 -26.474823 38.09928894 C-26.84311703 36.49369493 -27.20769375 34.88724442 -27.56884766 33.2800293 C-28.11947773 30.83700111 -28.68579809 28.39799955 -29.25390625 25.95898438 C-29.61033315 24.39605153 -29.96583134 22.83290655 -30.3203125 21.26953125 C-30.48902863 20.54635208 -30.65774475 19.82317291 -30.83157349 19.07807922 C-31.81094544 14.65787966 -32.32455065 10.55700742 -32 6 C-28.03461004 2.14359539 -21.82944261 1.71093493 -16.5625 0.75 C-15.1693457 0.4715625 -15.1693457 0.4715625 -13.74804688 0.1875 C-8.90673662 -0.72218392 -4.84703612 -1.35559384 0 0 Z " fill="#1A37AB" transform="translate(174,20)"/>
<path d="M0 0 C4.17097601 0.86544747 6.24186743 3.52164158 9.0859375 6.5625 C9.6624707 7.15973877 10.23900391 7.75697754 10.83300781 8.37231445 C14.33247237 12.02145967 17.7638694 15.72886864 21.015625 19.6015625 C22.3269892 21.1183939 23.69897489 22.58293205 25.09375 24.0234375 C32.18455833 31.42544118 32.18455833 31.42544118 32.8984375 35.5625 C32.7109375 38.5625 32.7109375 38.5625 30.7109375 40.5625 C27.8359375 40.5 27.8359375 40.5 24.7109375 39.5625 C22.3359375 37 22.3359375 37 20.7109375 34.5625 C15.68598776 35.09144208 11.48741066 36.7622137 6.8828125 38.72265625 C4.7109375 39.5625 4.7109375 39.5625 2.7109375 39.5625 C2.74574219 40.17738281 2.78054687 40.79226562 2.81640625 41.42578125 C2.84347656 42.23402344 2.87054688 43.04226562 2.8984375 43.875 C2.93324219 44.67550781 2.96804687 45.47601563 3.00390625 46.30078125 C2.7109375 48.5625 2.7109375 48.5625 1.57421875 50.41796875 C-1.18143615 52.11064566 -3.2171129 51.17137597 -6.2890625 50.5625 C-6.31412869 45.95841857 -6.33209223 41.35437846 -6.34399414 36.75024414 C-6.34896557 35.19001573 -6.35574507 33.62979183 -6.36450195 32.06958008 C-6.51162367 5.14630635 -6.51162367 5.14630635 -3.8894043 1.74926758 C-2.2890625 0.5625 -2.2890625 0.5625 0 0 Z M3.7109375 16.5625 C3.7109375 20.8525 3.7109375 25.1425 3.7109375 29.5625 C6.6809375 28.5725 9.6509375 27.5825 12.7109375 26.5625 C10.39210537 22.05365974 7.64642181 19.62343224 3.7109375 16.5625 Z " fill="#1A37AB" transform="translate(76.2890625,43.4375)"/>
<path d="M0 0 C1.03125 0.309375 2.0625 0.61875 3.125 0.9375 C4.75756203 6.08498621 5.58303792 10.91155614 6.01171875 16.28515625 C6.07784866 17.06007919 6.14397858 17.83500214 6.21211243 18.63340759 C6.34906065 20.26093209 6.48248909 21.88875625 6.61254883 23.5168457 C6.81228177 25.99728987 7.02747517 28.47606214 7.24414062 30.95507812 C7.37593043 32.54419394 7.50682045 34.1333847 7.63671875 35.72265625 C7.73348152 36.82444969 7.73348152 36.82444969 7.8321991 37.94850159 C8.15361116 42.12583337 7.99946343 45.83882996 7.125 49.9375 C4.155 50.4325 4.155 50.4325 1.125 50.9375 C-1.86014628 46.83292386 -2.1704439 43.96004631 -1.875 38.9375 C-3.74922152 38.45529737 -5.62441754 37.97688167 -7.5 37.5 C-8.54414063 37.23316406 -9.58828125 36.96632812 -10.6640625 36.69140625 C-11.72367187 36.44261719 -12.78328125 36.19382813 -13.875 35.9375 C-14.94492187 35.6796875 -16.01484375 35.421875 -17.1171875 35.15625 C-18.02726562 35.0840625 -18.93734375 35.011875 -19.875 34.9375 C-21.56232277 36.92010426 -23.22866057 38.9207342 -24.875 40.9375 C-28.125 41.375 -28.125 41.375 -30.875 40.9375 C-31.875 39.9375 -31.875 39.9375 -32.23828125 37.28515625 C-31.76735889 32.94558137 -29.79566209 30.58997391 -27.0625 27.375 C-26.32350464 26.47189087 -26.32350464 26.47189087 -25.56958008 25.55053711 C-24.020089 23.66611398 -22.44995131 21.80067131 -20.875 19.9375 C-19.8851171 18.75285442 -18.8955259 17.56796503 -17.90625 16.3828125 C-16.05804372 14.17559081 -14.19090398 11.98676846 -12.30859375 9.80859375 C-10.85409979 8.09261772 -9.43554921 6.34351706 -8.09765625 4.53515625 C-5.40790165 0.93216932 -4.65192297 -0.07503102 0 0 Z M-4.875 15.9375 C-6.2606841 17.57805622 -7.60889665 19.25038463 -8.9375 20.9375 C-10.03771484 22.3296875 -10.03771484 22.3296875 -11.16015625 23.75 C-11.72605469 24.471875 -12.29195313 25.19375 -12.875 25.9375 C-9.43049263 28.23383824 -6.93687717 28.47766485 -2.875 28.9375 C-3.205 24.6475 -3.535 20.3575 -3.875 15.9375 C-4.205 15.9375 -4.535 15.9375 -4.875 15.9375 Z " fill="#1A37AA" transform="translate(408.875,36.0625)"/>
<path d="M0 0 C2.73804282 0.59227167 4.5114843 1.34165186 6.20507812 3.62402344 C7.46866691 5.84011443 8.62295895 8.08635865 9.75 10.375 C10.17321533 11.21047363 10.59643066 12.04594727 11.0324707 12.90673828 C12.37883112 15.59346085 13.69335635 18.29375749 15 21 C15.44585449 21.91523437 15.89170898 22.83046875 16.35107422 23.7734375 C17.65131264 26.4644403 18.92515845 29.16603713 20.1875 31.875 C20.58614258 32.71208496 20.98478516 33.54916992 21.39550781 34.41162109 C24.0487599 40.26382113 24.0487599 40.26382113 23.80078125 44.0078125 C23 46 23 46 22 47 C19.24056116 47.29046725 17.62243642 47.43801081 15.3125 45.8125 C13.75708238 43.66454233 12.94892309 41.46720003 12 39 C7.99824 38.94172194 4.00184719 38.95906039 0 39 C-1.155 38.979375 -2.31 38.95875 -3.5 38.9375 C-6.68552988 40.2913502 -6.96826198 41.46767635 -8.375 44.5625 C-8.93939682 46.03314375 -9.48834651 47.51018541 -10 49 C-12.375 49.125 -12.375 49.125 -15 49 C-15.66 48.34 -16.32 47.68 -17 47 C-16.89261706 38.80310213 -14.08082476 31.19325054 -11.49951172 23.49658203 C-10.74886906 21.24661013 -10.02432566 18.98927935 -9.30078125 16.73046875 C-8.82187337 15.28333668 -8.34145617 13.83670305 -7.859375 12.390625 C-7.64770691 11.7228302 -7.43603882 11.0550354 -7.21795654 10.36700439 C-5.6646312 5.84048003 -3.57851209 3.14192458 0 0 Z M1 17 C-0.32 21.29 -1.64 25.58 -3 30 C0.3 29.67 3.6 29.34 7 29 C5.68938409 24.76570244 4.05643741 20.92592596 2 17 C1.67 17 1.34 17 1 17 Z " fill="#1A37AB" transform="translate(221,13)"/>
<path d="M0 0 C0.495 1.98 0.495 1.98 1 4 C-4.32424088 7.46529726 -9.72409907 10.47660065 -15.453125 13.21484375 C-16.234599 13.59306778 -17.016073 13.97129181 -17.82122803 14.36097717 C-20.29543771 15.55744966 -22.77257319 16.74770548 -25.25 17.9375 C-27.70584112 19.12183435 -30.1610505 20.30746759 -32.61602783 21.49359131 C-34.20463139 22.26071934 -35.7937765 23.02672699 -37.38348389 23.79156494 C-42.8387423 26.42037696 -48.24479983 29.12949872 -53.61914062 31.9206543 C-56.80836944 33.36646855 -59.51891364 33.8417688 -63 34 C-62.17579235 28.03479712 -59.0920384 25.18539289 -55 21 C-54.38382813 20.34773438 -53.76765625 19.69546875 -53.1328125 19.0234375 C-38.97570051 5.19684174 -19.4608544 -1.07949269 0 0 Z " fill="#FFFBFA" transform="translate(193,140)"/>
<path d="M0 0 C-0.37459124 2.42201461 -0.64347591 3.67977993 -2.49609375 5.34375 C-18.30434137 14.75872243 -36.75148313 18.10194302 -55 18.25 C-55.70608398 18.25926514 -56.41216797 18.26853027 -57.13964844 18.27807617 C-61.46240017 18.25179335 -64.98227306 17.58197998 -69 16 C-68.4556941 12.34455617 -68.4556941 12.34455617 -66.44238281 10.82226562 C-61.6298792 8.60619867 -56.88026672 6.82841306 -51.75 5.5 C-50.95787109 5.2935083 -50.16574219 5.0870166 -49.34960938 4.87426758 C-41.80675273 3.01777272 -34.18275803 1.80558132 -26.5 0.6875 C-25.33178711 0.51605469 -24.16357422 0.34460938 -22.95996094 0.16796875 C-4.66608945 -2.33304473 -4.66608945 -2.33304473 0 0 Z " fill="#FFFDF7" transform="translate(368,247)"/>
<path d="M0 0 C2.97 0.495 2.97 0.495 6 1 C6.56886257 15.20049517 6.56886257 15.20049517 3 20 C-2.59826361 25.05209155 -2.59826361 25.05209155 -6.3125 24.9140625 C-7.199375 24.81867188 -8.08625 24.72328125 -9 24.625 C-9.886875 24.53476562 -10.77375 24.44453125 -11.6875 24.3515625 C-14 24 -14 24 -16 23 C-18.69013339 22.81295596 -21.29686177 22.91418609 -24 23 C-26.2403023 25.2403023 -25.35366656 31.29378125 -25.4296875 34.47851562 C-25.66673924 40.17269603 -26.78361656 44.44263449 -30.625 48.875 C-35.51206454 51.18992531 -40.91338832 50.41407805 -46 49 C-50.3608508 47.80751186 -54.50757053 47.21533382 -59 48 C-66.33032903 52.66475484 -68.53628239 63.43651919 -71 71.3125 C-73.49045884 78.93330405 -76.77334289 84.01796445 -84 88 C-91.9826992 91.80128534 -101.88234688 90.72671771 -110.0625 88 C-112 87 -112 87 -113.625 84.3125 C-113.74875 83.549375 -113.8725 82.78625 -114 82 C-111.28421666 82.47925588 -108.80884035 83.06934223 -106.2109375 84.01171875 C-97.83773596 86.58887202 -89.87032503 85.65849331 -82.12109375 81.77734375 C-76.8123944 77.3289861 -75.25950557 71.06380772 -73.625 64.625 C-71.36599568 56.42515942 -68.57565106 50.25781541 -62.1875 44.4375 C-57.0660585 42.12783031 -52.36002008 42.19658891 -47.0625 44 C-42.79517103 45.39341354 -38.44743124 45.71189519 -34 45 C-32.03937264 43.4619751 -31.10835362 42.58245689 -30.64697266 40.10229492 C-30.6526123 39.40209229 -30.65825195 38.70188965 -30.6640625 37.98046875 C-30.65117187 37.20509766 -30.63828125 36.42972656 -30.625 35.63085938 C-30.625 34.013653 -30.63269901 32.39642666 -30.6484375 30.77929688 C-30.56664784 26.65914283 -30.29883266 23.79511423 -27.74609375 20.45703125 C-25 18 -25 18 -22.68359375 17.34375 C-21.57177734 17.42109375 -21.57177734 17.42109375 -20.4375 17.5 C-19.32181641 17.54640625 -19.32181641 17.54640625 -18.18359375 17.59375 C-15.82248659 18.03302575 -14.13503131 18.92614267 -12 20 C-8.001832 20.67156728 -4.97611026 20.69355203 -1.625 18.3125 C2.35947664 12.64228325 2.23549878 7.7378819 2 1 C1.01 0.505 1.01 0.505 0 0 Z " fill="#FBB912" transform="translate(209,239)"/>
<path d="M0 0 C1 1 1 1 1.375 3.375 C1.189375 4.674375 1.189375 4.674375 1 6 C-1.25 7.6875 -1.25 7.6875 -4 9 C-5.33429187 9.66474613 -6.66780724 10.33105705 -8 11 C-5.60568789 18.76099678 -2.42191475 26.06641001 0.94726562 33.44726562 C4.86496758 42.30551783 4.86496758 42.30551783 4 47 C1 49 1 49 -1.4519043 49.06860352 C-5.26042998 47.47140922 -6.20579122 44.49640622 -7.76953125 40.90234375 C-8.25833015 39.83905602 -8.25833015 39.83905602 -8.75700378 38.75428772 C-9.79322091 36.48960351 -10.8029613 34.21418383 -11.8125 31.9375 C-12.51065742 30.39961211 -13.2105076 28.86249147 -13.91210938 27.32617188 C-15.62783806 23.55940114 -17.31991644 19.78279586 -19 16 C-20.09699219 16.48855469 -21.19398437 16.97710937 -22.32421875 17.48046875 C-25.66282452 18.86061502 -27.48139049 19.5026585 -31 19 C-33 17 -33 17 -33.19140625 14.16796875 C-31.59033787 9.91070168 -29.56520086 9.25245128 -25.54882812 7.41992188 C-24.2562207 6.87174805 -24.2562207 6.87174805 -22.9375 6.3125 C-22.10283203 5.93544922 -21.26816406 5.55839844 -20.40820312 5.16992188 C-4.86836877 -1.77031592 -4.86836877 -1.77031592 0 0 Z " fill="#1A37AB" transform="translate(59,53)"/>
<path d="M0 0 C0.99 0.33 1.98 0.66 3 1 C2.96519531 2.28132813 2.93039063 3.56265625 2.89453125 4.8828125 C2.66868502 16.89340809 3.59953641 27.33672861 7.1875 38.875 C8.1920471 42.7386427 8.13971754 46.01805023 8 50 C4.6121482 50.0846963 2.55747048 49.46989849 -0.0390625 47.28125 C-7.3210661 39.53559823 -10.54949099 31.55647554 -11.09375 20.95703125 C-10.85363278 13.38333395 -8.52251578 7.81442546 -3.40234375 2.27734375 C-2 1 -2 1 0 0 Z " fill="#FEFEFE" transform="translate(40,366)"/>
<path d="M0 0 C0.33 0 0.66 0 1 0 C1.33 1.65 1.66 3.3 2 5 C2.721875 4.505 3.44375 4.01 4.1875 3.5 C9.87738947 0.67532803 17.24102409 1.02952429 23.26953125 2.5859375 C28.49896251 4.90776238 32.5265673 8.93773599 36.65625 12.8125 C38.59178666 14.61900088 40.55217417 16.29488331 42.625 17.9375 C43.40875 18.618125 44.1925 19.29875 45 20 C45 20.66 45 21.32 45 22 C40.71748647 21.64312387 37.75272165 21.000565 34 18.875 C29.9951624 16.74476723 27.44378973 16.74232366 23 18 C22.175 18.515625 21.35 19.03125 20.5 19.5625 C17.10578681 21.51417258 14.86529203 21.40687285 11 21 C6.86916242 19.62305414 4.80871855 18.11534176 2.625 14.4375 C1 11 1 11 1 9 C0.01 9.33 -0.98 9.66 -2 10 C-1.34 6.7 -0.68 3.4 0 0 Z " fill="#BB583B" transform="translate(77,378)"/>
<path d="M0 0 C5.32956381 2.80130773 9.79053604 7.04925426 14.26171875 11.03125 C17.13346771 13.55889752 20.14807179 15.63619931 23.375 17.6875 C23.8803125 16.87410156 24.385625 16.06070312 24.90625 15.22265625 C27.375 12.6875 27.375 12.6875 30.90625 12.12109375 C32.87078125 12.12302734 32.87078125 12.12302734 34.875 12.125 C40.29250087 12.30302584 40.29250087 12.30302584 44.71875 9.66015625 C45.2653125 9.00917969 45.811875 8.35820312 46.375 7.6875 C47.035 7.6875 47.695 7.6875 48.375 7.6875 C48.87 9.6675 48.87 9.6675 49.375 11.6875 C48.3128125 12.26757812 47.250625 12.84765625 46.15625 13.4453125 C44.72844194 14.23306285 43.30140753 15.02221649 41.875 15.8125 C41.14047607 16.21831299 40.40595215 16.62412598 39.64916992 17.04223633 C35.06901565 19.6136491 30.92613969 22.30733041 27.05078125 25.88671875 C25.375 26.6875 25.375 26.6875 22.9921875 26.08984375 C20.05988878 24.51865682 17.7251981 22.71410813 15.1875 20.5625 C14.23230469 19.76457031 13.27710938 18.96664063 12.29296875 18.14453125 C11.33003906 17.33371094 10.36710937 16.52289063 9.375 15.6875 C7.58993818 14.20036929 5.79866079 12.72065389 4 11.25 C3.22914062 10.61191406 2.45828125 9.97382813 1.6640625 9.31640625 C-4.63314596 4.83528692 -11.14282606 5.05403987 -18.625 5.6875 C-21.27148967 6.4319597 -23.21060213 7.33992909 -25.625 8.6875 C-25.625 6.3775 -25.625 4.0675 -25.625 1.6875 C-18.17536986 -2.62664833 -8.13706367 -3.07970499 0 0 Z " fill="#973324" transform="translate(103.625,375.3125)"/>
<path d="M0 0 C1.32 0.99 2.64 1.98 4 3 C3.195625 3.763125 2.39125 4.52625 1.5625 5.3125 C-1.85552035 8.89725305 -2.09337065 11.4333283 -2.375 16.1875 C-3.00930413 23.5747035 -4.78840277 29.48888569 -10 35 C-12.48417631 36.51820716 -15.09608887 37.68540028 -17.75 38.875 C-26.91974509 43.05932721 -26.91974509 43.05932721 -34 50 C-34.94842435 53.17357379 -34.65991064 54.59046169 -34 58 C-31.1584209 63.18897053 -25.90756869 65.94849896 -21 69 C-21.33 70.32 -21.66 71.64 -22 73 C-26.20402145 71.59614364 -28.92189207 69.59912401 -32.1875 66.625 C-33.04730469 65.85414063 -33.90710938 65.08328125 -34.79296875 64.2890625 C-38.0284621 60.93331188 -38.88372814 58.87203897 -39.5 54.25 C-39.31129366 50.00410741 -38.04954498 47.28361617 -35.37109375 44.0078125 C-31.62417412 40.83496787 -27.32941815 38.94213283 -22.90966797 36.86157227 C-14.12085131 32.72055348 -14.12085131 32.72055348 -8.6875 24.875 C-8.28737763 22.61976482 -7.90205172 20.36161776 -7.5546875 18.09765625 C-5.46567404 4.68486346 -5.46567404 4.68486346 0 0 Z " fill="#D9D7D7" transform="translate(449,327)"/>
<path d="M0 0 C2.5625 0.3125 2.5625 0.3125 4.4375 1.4375 C6.13941811 4.27403018 5.28472031 6.14501744 4.5625 9.3125 C3.34741211 12.19677734 3.34741211 12.19677734 1.83984375 15.1484375 C1.30166016 16.21191406 0.76347656 17.27539062 0.20898438 18.37109375 C-0.35498047 19.46550781 -0.91894531 20.55992188 -1.5 21.6875 C-2.06783203 22.80511719 -2.63566406 23.92273438 -3.22070312 25.07421875 C-4.61913304 27.82407253 -6.02490669 30.56990261 -7.4375 33.3125 C-9.77044775 33.35491723 -12.10452567 33.35342937 -14.4375 33.3125 C-15.4375 32.3125 -15.4375 32.3125 -15.64599609 29.61035156 C-15.41995486 26.03498272 -14.60906602 23.78087932 -13.1015625 20.546875 C-12.61429687 19.49242188 -12.12703125 18.43796875 -11.625 17.3515625 C-11.109375 16.26617187 -10.59375 15.18078125 -10.0625 14.0625 C-9.55460937 12.96164063 -9.04671875 11.86078125 -8.5234375 10.7265625 C-3.73977721 0.47945862 -3.73977721 0.47945862 0 0 Z " fill="#1A37AB" transform="translate(476.4375,62.6875)"/>
<path d="M0 0 C0.8353125 1.1446875 0.8353125 1.1446875 1.6875 2.3125 C3.77607643 5.15163085 3.77607643 5.15163085 6.75 6.125 C7.4925 6.74375 8.235 7.3625 9 8 C9.15855255 10.84513741 8.99404856 13.612631 8.84375 16.45703125 C8.8953125 17.29621094 8.946875 18.13539063 9 19 C11.30317533 21.30487721 11.30317533 21.30487721 14 22 C13.7834375 23.2375 13.7834375 23.2375 13.5625 24.5 C12.94746848 28.32686278 12.46439363 32.15216707 12 36 C10.52031676 35.85950482 9.04125484 35.71245174 7.5625 35.5625 C6.73878906 35.48128906 5.91507812 35.40007812 5.06640625 35.31640625 C3 35 3 35 2 34 C1.8541227 32.33838992 1.77267178 30.67103573 1.71875 29.00390625 C1.68136719 27.96943359 1.64398438 26.93496094 1.60546875 25.86914062 C1.57066406 24.77794922 1.53585937 23.68675781 1.5 22.5625 C1.25091805 15.00240142 0.86616836 7.5169538 0 0 Z " fill="#F2B210" transform="translate(439,168)"/>
<path d="M0 0 C0.33 0 0.66 0 1 0 C0.57734221 5.38888681 -0.33721498 8.04885502 -4 12 C-5.9733832 13.42242521 -7.9980814 14.77575582 -10.0625 16.0625 C-15.00990653 19.15080692 -18.12813093 21.38439278 -20 27 C-20.54030113 32.72719196 -19.6516353 35.55882194 -16 40 C-11.47537418 45.09020405 -5.42610508 45.22107817 1 46 C-1.90617542 48.26656844 -4.52276264 49.74433095 -8 51 C-8 50.34 -8 49.68 -8 49 C-8.66 48.95875 -9.32 48.9175 -10 48.875 C-15.20816938 47.3559506 -19.41868314 44.42703506 -22.40234375 39.84765625 C-25.17224033 34.08114557 -26.06910949 29.20732847 -24 23 C-20.08552928 17.12829392 -14.55018065 13.3271337 -8.75 9.4375 C-4.67892526 6.67342161 -2.39188289 4.26379125 0 0 Z " fill="#D9D6D6" transform="translate(434,409)"/>
<path d="M0 0 C4.99793418 0.49105552 9.88935948 1.14521625 14.82299805 2.10424805 C30.34433198 5.00923388 46.26039228 4.75332332 62 5 C62.495 6.98 62.495 6.98 63 9 C58.32677536 9.07559343 53.65392585 9.12926247 48.98022461 9.16479492 C47.39878117 9.17964641 45.81737705 9.19993305 44.23608398 9.22631836 C28.92021739 9.47500005 14.69967709 7.47657553 0 3 C0 2.01 0 1.02 0 0 Z " fill="#151006" transform="translate(203,414)"/>
<path d="M0 0 C1.3046801 1.95702015 2.57742367 3.93582457 3.8125 5.9375 C5.9552288 8.93732032 8.02889862 10.85420456 11 13 C9.576875 13.3403125 9.576875 13.3403125 8.125 13.6875 C4.84460579 14.66610433 4.84460579 14.66610433 3.8125 17.375 C3.544375 18.24125 3.27625 19.1075 3 20 C2.04175747 21.36365283 1.05278825 22.70794169 0 24 C-0.21914063 23.45730469 -0.43828125 22.91460937 -0.6640625 22.35546875 C-2.44447858 18.33867638 -3.4016216 16.36823286 -7.25 14 C-8.1575 13.67 -9.065 13.34 -10 13 C-9.236875 12.401875 -8.47375 11.80375 -7.6875 11.1875 C-3.2808702 7.6007083 -1.61361735 5.58559851 0 0 Z " fill="#FEFDFD" transform="translate(429,393)"/>
<path d="M0 0 C2 1 2 1 3.3125 4.375 C5.14360039 8.30847492 6.26809154 9.08361457 10 11 C10 11.66 10 12.32 10 13 C9.071875 13.5775 8.14375 14.155 7.1875 14.75 C3.69157513 17.21771167 2.5966213 19.09714793 1 23 C0.34 22.01 -0.32 21.02 -1 20 C-3.99705917 15.9307451 -3.99705917 15.9307451 -8 13 C-7 10 -7 10 -4.5625 7.625 C-2.07392216 5.07572514 -1.05218733 3.34786879 0 0 Z " fill="#FEFBF3" transform="translate(344,292)"/>
<path d="M0 0 C0.61875 0.8353125 0.61875 0.8353125 1.25 1.6875 C1.8275 2.450625 2.405 3.21375 3 4 C3.639375 4.845625 4.27875 5.69125 4.9375 6.5625 C6.82148858 8.78903196 8.59870556 10.3705502 11 12 C10.278125 12.350625 9.55625 12.70125 8.8125 13.0625 C5.16423256 15.5757509 3.43472709 18.31312754 1 22 C0.608125 21.443125 0.21625 20.88625 -0.1875 20.3125 C-3.07190285 16.63239982 -6.10732772 13.59511485 -10 11 C-9.0925 10.67 -8.185 10.34 -7.25 10 C-3.01932133 7.39650543 -1.81453912 4.49365277 0 0 Z " fill="#FEFAF5" transform="translate(148,198)"/>
<path d="M0 0 C0.66 0 1.32 0 2 0 C2.33 1.32 2.66 2.64 3 4 C0.41732587 5.45951119 -2.16610741 6.91764881 -4.75 8.375 C-5.47960937 8.7875 -6.20921875 9.2 -6.9609375 9.625 C-7.66992188 10.02460938 -8.37890625 10.42421875 -9.109375 10.8359375 C-10.08342285 11.38580322 -10.08342285 11.38580322 -11.07714844 11.94677734 C-13.02837191 13.01554043 -15.00410556 14.01758503 -17 15 C-18.98 13.68 -20.96 12.36 -23 11 C-20.125 6.125 -20.125 6.125 -19 5 C-15.87714948 4.83048459 -12.7618088 4.70283267 -9.63476562 4.65820312 C-6.11725214 4.51035065 -4.34485669 4.29910456 -1.64453125 1.95703125 C-1.10183594 1.31121094 -0.55914062 0.66539062 0 0 Z " fill="#A6412E" transform="translate(150,383)"/>
<path d="M0 0 C1.12664062 -0.00515625 2.25328125 -0.0103125 3.4140625 -0.015625 C6.375 0.25 6.375 0.25 9.375 2.25 C9.375 2.91 9.375 3.57 9.375 4.25 C2.32387561 6.46211746 -4.27157821 6.45177072 -11.625 6.25 C-11.625 4.93 -11.625 3.61 -11.625 2.25 C-7.62748167 0.36353067 -4.40431569 -0.02024973 0 0 Z " fill="#FFF3EE" transform="translate(216.625,135.75)"/>
<path d="M0 0 C-1.9928183 4.48384118 -4.42454653 6.23566457 -8.7265625 8.21875 C-12.41898447 9.48762353 -16.11746986 9.82025323 -20 10 C-18.12452184 5.01317946 -14.36077827 3.56080889 -9.84375 1.1953125 C-6.20456164 -0.33434635 -3.87164753 -0.51621967 0 0 Z " fill="#FFFCF4" transform="translate(397,235)"/>
<path d="M0 0 C2.75799098 1.37899549 3.43852596 3.37672362 5 6 C6.58245275 7.75149165 6.58245275 7.75149165 8 9 C5.33333333 11.66666667 2.66666667 14.33333333 0 17 C-0.598125 16.071875 -1.19625 15.14375 -1.8125 14.1875 C-3.45272845 11.79745282 -4.8718917 9.91529747 -7 8 C-5.824375 7.4121875 -5.824375 7.4121875 -4.625 6.8125 C-1.64843582 4.75725331 -1.01176437 3.40320742 0 0 Z " fill="#FEF7F2" transform="translate(369,136)"/>
<path d="M0 0 C4.27918305 0.48778252 6.0561342 1.59618578 8.8125 4.875 C9.41707031 5.57367188 10.02164063 6.27234375 10.64453125 6.9921875 C12 9 12 9 12 12 C8.85017752 11.92500423 6.69832201 11.59766298 4.265625 9.515625 C0 4.7625 0 4.7625 0 0 Z " fill="#FEFDFD" transform="translate(52,421)"/>
<path d="M0 0 C3.125 0.375 3.125 0.375 6 1 C6.625 3.875 6.625 3.875 7 7 C5 9 5 9 2.5 9.25 C0 9 0 9 -2 7 C-2.25 4.5 -2.25 4.5 -2 2 C-1.34 1.34 -0.68 0.68 0 0 Z " fill="#1A38AB" transform="translate(458,98)"/>
<path d="M0 0 C1.7143618 1.95927063 3.38405168 3.95880212 5 6 C4.38125 6.433125 3.7625 6.86625 3.125 7.3125 C0.7802755 8.99740483 0.7802755 8.99740483 -1 12 C-1.2475 11.21625 -1.495 10.4325 -1.75 9.625 C-3.15389099 6.67682892 -4.00675737 6.0975223 -7 5 C-2.25 0 -2.25 0 0 0 Z " fill="#FEF9EB" transform="translate(330,322)"/>
<path d="M0 0 C0.33 0 0.66 0 1 0 C1 2.97 1 5.94 1 9 C0.01 9.33 -0.98 9.66 -2 10 C-1.34 6.7 -0.68 3.4 0 0 Z " fill="#A44A3C" transform="translate(77,378)"/>
</svg>
